<svg xmlns="http://www.w3.org/2000/svg" viewBox="827 3523 56 56"><defs><style>.a{fill:none;}.b{fill:#222;}</style></defs><g transform="translate(779 3251)"><rect class="a" width="56" height="56" transform="translate(48 272)"/><g transform="translate(61 285)"><path d="M27.978,1.9H23.71V0H5.968L0,5.968V29.4H23.71V11.381h4.268A1.424,1.424,0,0,0,29.4,9.958V3.319A1.424,1.424,0,0,0,27.978,1.9ZM5.69,1.619V5.69H1.619ZM22.762,28.452H.948V6.639h5.69V.948H22.762V1.9H10.907A1.424,1.424,0,0,0,9.484,3.319V9.958a1.424,1.424,0,0,0,1.423,1.423H22.762Zm5.69-18.494a.475.475,0,0,1-.474.474H10.907a.475.475,0,0,1-.474-.474V3.319a.475.475,0,0,1,.474-.474H27.978a.475.475,0,0,1,.474.474Z"/><rect class="b" width="0.948" height="0.948" transform="translate(1.897 7.587)"/><rect class="b" width="0.948" height="0.948" transform="translate(3.794 7.587)"/><rect class="b" width="0.948" height="0.948" transform="translate(1.897 9.484)"/><path d="M63.955,234.614l-3.531,1.766.424.848,3.594-1.8,4.256,1.892,4.255-1.892,3.594,1.8.424-.848-3.531-1.766v-5.231l-4.268-1.9V224h-.948v3.485l-4.268,1.9Zm4.742-6.3,3.1,1.378-3.1,1.378-3.1-1.378ZM64.9,230.42l3.794,1.686,3.794-1.686V234.6L68.7,236.284,64.9,234.6Z" transform="translate(-56.842 -210.722)"/><path class="b" d="M387.082,64H385.66a1.66,1.66,0,0,0,0,3.319h1.423a.711.711,0,0,1,0,1.423H385.66a.712.712,0,0,1-.711-.711v-.237H384v.237a1.661,1.661,0,0,0,1.66,1.66h1.423a1.66,1.66,0,0,0,0-3.319H385.66a.711.711,0,0,1,0-1.423h1.423a.712.712,0,0,1,.711.711V65.9h.948V65.66A1.662,1.662,0,0,0,387.082,64Z" transform="translate(-372.128 -60.206)"/><path class="b" d="M387.134,64.013h-3.056V65.1h1.906V69.73h1.15V65.1h1.708V64.013Z" transform="translate(-366.655 -60.202)"/><path class="b" d="M2.45,0h1.1V5.717H2.45V1.089H0V0Z" transform="translate(27.087 9.528) rotate(180)"/></g></g></svg>