<svg xmlns="http://www.w3.org/2000/svg" viewBox="2077 4055 48 48"><g transform="translate(2813 -4011)"><path d="M60.323,45.175,54.769,16.743a2.566,2.566,0,0,0-2.576-1.978H42.955a8.265,8.265,0,0,0,2.808-6.141c0-4.755-4.216-8.624-9.4-8.624s-9.4,3.869-9.4,8.624a8.265,8.265,0,0,0,2.808,6.141H20.535a2.566,2.566,0,0,0-2.576,1.978L12.4,45.175a2.261,2.261,0,0,0,.569,1.965,2.718,2.718,0,0,0,2.007.86H57.746a2.718,2.718,0,0,0,2.007-.86A2.261,2.261,0,0,0,60.323,45.175ZM36.364,4.8a4.008,4.008,0,0,1,4.164,3.821,4.18,4.18,0,0,1-8.329,0A4.008,4.008,0,0,1,36.364,4.8ZM35.68,37.165a.793.793,0,0,1-.685.374H33.76a.8.8,0,0,1-.673-.354L30.031,32.4l-1.954,1.83v2.2a1.21,1.21,0,0,1-2.41,0V27.692a1.21,1.21,0,0,1,2.41,0V31.45l4.638-4.632a.813.813,0,0,1,.574-.231h1.06a.784.784,0,0,1,.718.436.672.672,0,0,1-.157.777l-3.217,3.053,3.956,5.582A.666.666,0,0,1,35.68,37.165Zm11.874-1.459a.7.7,0,0,1-.293.56,7.47,7.47,0,0,1-1.9.948,8.623,8.623,0,0,1-2.911.512A7.008,7.008,0,0,1,39.183,37a4.768,4.768,0,0,1-2.093-2.062,6.206,6.206,0,0,1-.7-2.917,5.886,5.886,0,0,1,.782-3.041,5.087,5.087,0,0,1,2.288-2.04,6.645,6.645,0,0,1,2.858-.545,6.087,6.087,0,0,1,3.473.856,3.9,3.9,0,0,1,.916.864,1.05,1.05,0,0,1,.129,1.072,1.212,1.212,0,0,1-.911.682h0a1.237,1.237,0,0,1-1.228-.493,2.348,2.348,0,0,0-.637-.624,3.055,3.055,0,0,0-1.739-.467,3.422,3.422,0,0,0-2.512.919,3.668,3.668,0,0,0-.932,2.727,4.051,4.051,0,0,0,.945,2.925,3.291,3.291,0,0,0,2.475.975,4.477,4.477,0,0,0,1.518-.273,5.375,5.375,0,0,0,1.307-.661v-1.39H43.364a.926.926,0,1,1,0-1.845h3.41a.75.75,0,0,1,.78.715v3.324Z" transform="translate(-748.364 8066)"/></g></svg>