<svg xmlns="http://www.w3.org/2000/svg" viewBox="1845 4055 48 48"><g transform="translate(2802 -4003)"><g transform="translate(-953.145 8054.813)"><g transform="translate(-3.855 3.188)"><g transform="translate(0 0)"><path d="M255.445,423.213c-.4.1-.8.188-1.2.262a1.949,1.949,0,0,0-.76,3.5,1.913,1.913,0,0,0,1.463.322c.477-.089.958-.194,1.429-.313a1.943,1.943,0,0,0-.933-3.772Z" transform="translate(-226.597 -379.35)"/><path d="M413.02,140.039a1.937,1.937,0,0,0,.719.977,1.917,1.917,0,0,0,1.719.257,1.948,1.948,0,0,0,1.225-2.456c-.153-.464-.322-.93-.5-1.384a1.925,1.925,0,0,0-2.508-1.083,1.948,1.948,0,0,0-1.075,2.526C412.75,139.257,412.892,139.649,413.02,140.039Z" transform="translate(-369.902 -122.228)"/><path d="M322.878,394.234c-.34.226-.692.445-1.046.651a1.952,1.952,0,0,0-.148,3.273,1.92,1.92,0,0,0,2.077.094c.421-.244.839-.5,1.245-.774a1.953,1.953,0,0,0,.546-2.693A1.92,1.92,0,0,0,322.878,394.234Z" transform="translate(-287.759 -353.145)"/><path d="M431.492,209.179a1.93,1.93,0,1,0-3.856.153c.016.41.02.826.011,1.236a1.946,1.946,0,0,0,.819,1.633,1.916,1.916,0,0,0,1.068.354,1.936,1.936,0,0,0,1.971-1.9C431.515,210.164,431.511,209.668,431.492,209.179Z" transform="translate(-383.511 -185.94)"/><path d="M380.685,344.458a1.92,1.92,0,0,0-2.7.388c-.245.329-.5.654-.767.966a1.954,1.954,0,0,0,.218,2.74c.046.04.093.076.141.11a1.92,1.92,0,0,0,2.579-.33c.315-.373.623-.761.916-1.154A1.953,1.953,0,0,0,380.685,344.458Z" transform="translate(-337.882 -308.483)"/><path d="M416.7,279.441a1.927,1.927,0,0,0-2.418,1.273c-.122.391-.257.784-.4,1.17a1.953,1.953,0,0,0,.69,2.28,1.924,1.924,0,0,0,2.916-.9c.173-.458.334-.926.479-1.391A1.947,1.947,0,0,0,416.7,279.441Z" transform="translate(-371.06 -250.493)"/><path d="M20.43,45.831a19.821,19.821,0,0,1-4.949-1.584c-.019-.01-.035-.021-.055-.03-.37-.175-.739-.363-1.1-.559l-.005,0A20.334,20.334,0,0,1,7.539,14.182a20.125,20.125,0,0,1,4.949-4.96l.069-.049a20.049,20.049,0,0,1,22.606-.183l-1.508,2.194c-.419.611-.161,1.056.572.989l6.549-.591a1.086,1.086,0,0,0,.976-1.421L39.995,3.78c-.2-.715-.7-.8-1.12-.191l-1.511,2.2A23.691,23.691,0,0,0,19.9,2.049q-.926.162-1.827.393l-.012,0-.069.02A23.786,23.786,0,0,0,4.8,11.371c-.028.033-.056.066-.083.1-.109.149-.218.3-.325.452-.174.249-.345.5-.51.76-.021.031-.036.062-.054.093a24.1,24.1,0,0,0-3.8,14.134c0,.016,0,.033,0,.05.022.488.06.982.112,1.469,0,.031.01.061.015.093.054.489.121.98.206,1.47A24.047,24.047,0,0,0,7.073,43l.025.026.009.008a24.356,24.356,0,0,0,3.074,2.588,23.7,23.7,0,0,0,9.568,4.034,1.943,1.943,0,0,0,.681-3.826Z" transform="translate(0 -1.688)"/><path d="M207.549,83.2a1.567,1.567,0,0,0-1.562,1.573v15.668l14.226,7.408a1.543,1.543,0,0,0,.715.176,1.56,1.56,0,0,0,1.388-.851,1.577,1.577,0,0,0-.67-2.119l-12.537-6.529V84.771A1.567,1.567,0,0,0,207.549,83.2Z" transform="translate(-184.733 -74.726)"/></g></g></g></g></svg>