<svg xmlns="http://www.w3.org/2000/svg" viewBox="5281 1258.5 72 71.999"><defs><style>.a{fill:red;}</style></defs><g transform="translate(5085 1129.5)"><path class="a" d="M36,72A36,36,0,1,1,72,36,36.041,36.041,0,0,1,36,72ZM27.907,24.241a2.543,2.543,0,0,0-1.539.524,15.218,15.218,0,0,0-4.9,18.161,15.106,15.106,0,0,0,8.155,8.152,15.119,15.119,0,0,0,11.881,0,15.123,15.123,0,0,0,8.152-8.152,15.2,15.2,0,0,0-4.9-18.161,2.48,2.48,0,0,0-1.525-.524,2.807,2.807,0,0,0-.37.025,2.381,2.381,0,0,0-1.676,1,2.448,2.448,0,0,0-.488,1.883,2.483,2.483,0,0,0,.988,1.683,10.242,10.242,0,0,1,3.02,3.609,10.173,10.173,0,0,1,.26,8.5,10.149,10.149,0,0,1-5.444,5.441,10.113,10.113,0,0,1-7.914,0,10.13,10.13,0,0,1-5.441-5.441,10.183,10.183,0,0,1,.26-8.5,10.249,10.249,0,0,1,3.017-3.609,2.482,2.482,0,0,0,.987-1.683,2.415,2.415,0,0,0-.487-1.883,2.364,2.364,0,0,0-1.662-1A2.792,2.792,0,0,0,27.907,24.241Zm7.653-5.117a2.582,2.582,0,0,0-2.553,2.553V34.432a2.551,2.551,0,0,0,5.1,0V21.677a2.58,2.58,0,0,0-2.55-2.553Z" transform="translate(195.999 129)"/></g></svg>