<svg xmlns="http://www.w3.org/2000/svg" viewBox="4360 1234 96 96"><defs><style>.a{fill:none;}</style></defs><g transform="translate(4200 1082)"><g transform="translate(-8)"><path d="M44.246,15.569l-9.738.051a1.851,1.851,0,0,0-1.835,1.839l-.048,9.269a1.8,1.8,0,0,0,1.816,1.82l2.069-.011-.042,7.987L25.73,41.616l.146-28.142,4.328-.023a1.849,1.849,0,0,0,1.632-1.007,1.828,1.828,0,0,0-.14-1.9L24.619.747A1.8,1.8,0,0,0,23.146,0a1.846,1.846,0,0,0-1.481.762l-7.179,9.867a1.836,1.836,0,0,0-.16,1.906,1.8,1.8,0,0,0,1.622.99l4.328-.023L20.1,47.327,9.414,42.346l.049-9.407a6.8,6.8,0,0,0,3.927-6.111,6.625,6.625,0,0,0-6.66-6.673A6.794,6.794,0,0,0,0,26.9a6.631,6.631,0,0,0,3.864,6.07L3.806,44.157a2.77,2.77,0,0,0,1.6,2.531l14.666,6.837-.057,10.984c-4.153,1.238-5.975,3.816-6,9.035-.032,6.1,4.8,8.722,8.709,8.7a8.611,8.611,0,0,0,8.8-8.793c.027-5.219-1.767-7.778-5.908-8.973L25.7,47.813l14.738-6.99a2.841,2.841,0,0,0,1.623-2.547l.051-9.769,2.069-.011a1.851,1.851,0,0,0,1.835-1.839l.048-9.269A1.8,1.8,0,0,0,44.246,15.569Z" transform="translate(170.611 187.181) rotate(-45)"/><rect class="a" width="96" height="96" transform="translate(168 152)"/></g></g></svg>