<svg xmlns="http://www.w3.org/2000/svg" viewBox="5622.5 2008.998 133.278 136.264"><defs><style>.a{fill:none;stroke:#000;stroke-width:3px;}</style></defs><g transform="translate(1069.236 -6.198)"><path d="M67.874,62.76H0V58.436H67.874v4.324h0Zm0-7.787H0V52.808H67.874v2.164Zm0-5.628H0V47.18H67.874v2.164Zm0-5.627H0V41.553H67.874v2.164Zm0-5.627H0V35.925H67.874V38.09Zm0-5.627H0V30.3H67.874v2.165Zm0-5.628H0V24.67H67.874v2.164Zm0-5.627H0V19.043H67.874v2.164Zm0-5.627H0V13.415H67.874v2.164Zm0-5.628H0V7.787H67.874V9.952Zm0-5.627H0V0H67.874V4.324Z" transform="translate(4586.021 2029)"/><path d="M8.6,10.411H4.618L4.6,10.4.005,6.514H13.4l-4.8,3.9Zm2.221-4.375H2.192V0H1.841V6.035H0V0H13.41V6.034H11.156V0h-.332V6.035Z" transform="translate(4597.662 2107.32)"/><path d="M8.673,10.411H4.658L.005,6.514H13.4l-4.731,3.9Zm2.15-4.375H2.192V0H1.841V6.035H0V0H13.41V6.034H11.156V0h-.332V6.035Z" transform="translate(4628.81 2107.32)"/><rect width="25.494" height="11.796" transform="translate(4622.983 2094.154)"/><path class="a" d="M5115.042,2250.925h-126.17s-4.108.508-4.108-2.84,4.108-2.9,4.108-2.9h122.585s3.584.392,3.584-2.938-3.584-3.053-3.584-3.053H4988.872s-4.108.274-4.108-2.984,4.108-2.879,4.108-2.879h122.585s3.584.333,3.584-3.065-3.584-3.059-3.584-3.059h-42.243a3.888,3.888,0,0,1-2.735-.774,4.069,4.069,0,0,1-.851-2.714v-4.1" transform="translate(-430 -101.003)"/><rect width="25.494" height="11.796" transform="translate(4591.438 2094.198)"/><rect width="12.008" height="2.025" transform="translate(4598.08 2026.975)"/><rect width="12.008" height="2.025" transform="translate(4629.44 2026.975)"/><path d="M0,0A2.08,2.08,0,0,1,1.734.969C2.563,2.625,3,2.609,3,2.609V12H0Z" transform="translate(4602.764 2015.198)"/><path d="M0,0A2.08,2.08,0,0,1,1.734.969C2.563,2.625,3,2.609,3,2.609V12H0Z" transform="translate(4633.764 2015.198)"/></g></svg>