<svg xmlns="http://www.w3.org/2000/svg" viewBox="5521 1258.5 72 72"><defs><style>.a{fill:#70aa24;}</style></defs><g transform="translate(5117 1142.5)"><path class="a" d="M36,72A36,36,0,1,1,72,36,36.041,36.041,0,0,1,36,72Zm.562-50.626a14.87,14.87,0,0,0-5.893,1.205,15.041,15.041,0,0,0-8.088,8.087,15.027,15.027,0,0,0,0,11.79,15.038,15.038,0,0,0,8.088,8.087,14.862,14.862,0,0,0,5.893,1.206,15.137,15.137,0,0,0,11.69-5.478.662.662,0,0,0,.146-.445.546.546,0,0,0-.189-.407L45.5,42.692a.768.768,0,0,0-.5-.179.618.618,0,0,0-.452.239,10.057,10.057,0,0,1-11.918,3.135,10.034,10.034,0,0,1-5.4-5.4,10.049,10.049,0,0,1,0-7.852,10.068,10.068,0,0,1,5.4-5.4,9.982,9.982,0,0,1,3.926-.8,9.873,9.873,0,0,1,6.9,2.711l-2.731,2.728a1.129,1.129,0,0,0-.278,1.363,1.193,1.193,0,0,0,1.168.792h8.858a1.279,1.279,0,0,0,1.266-1.266V23.906a1.2,1.2,0,0,0-.77-1.169,1.455,1.455,0,0,0-.543-.117,1.146,1.146,0,0,0-.845.4l-2.567,2.553a15.4,15.4,0,0,0-4.835-3.095A15,15,0,0,0,36.561,21.374Z" transform="translate(404 116)"/></g></svg>