<svg xmlns="http://www.w3.org/2000/svg" viewBox="4744 1170 96 96"><defs><style>.a{fill:none;}</style></defs><g transform="translate(4200 1082)"><g transform="translate(236)"><path d="M56.929,23.7l-4.211-.714A23.779,23.779,0,0,0,51.025,18.9l2.482-3.472a3.7,3.7,0,0,0-.4-4.775L49.371,6.92a3.679,3.679,0,0,0-2.62-1.09,3.642,3.642,0,0,0-2.143.689L41.124,9a23.532,23.532,0,0,0-4.236-1.742l-.7-4.161A3.7,3.7,0,0,0,32.525,0H27.249a3.7,3.7,0,0,0-3.66,3.1l-.727,4.262a23.194,23.194,0,0,0-4.074,1.717L15.341,6.594a3.7,3.7,0,0,0-4.775.4L6.818,10.73a3.71,3.71,0,0,0-.4,4.775l2.507,3.522a23.227,23.227,0,0,0-1.667,4.1l-4.161.7A3.7,3.7,0,0,0,0,27.488v5.277a3.7,3.7,0,0,0,3.1,3.66l4.262.727a23.194,23.194,0,0,0,1.717,4.074L6.605,44.659a3.7,3.7,0,0,0,.4,4.775l3.735,3.735a3.679,3.679,0,0,0,2.62,1.09,3.642,3.642,0,0,0,2.143-.689l3.522-2.507a23.71,23.71,0,0,0,3.961,1.629l.7,4.211a3.7,3.7,0,0,0,3.66,3.1h5.289a3.7,3.7,0,0,0,3.66-3.1l.714-4.211A23.779,23.779,0,0,0,41.1,51l3.472,2.482a3.68,3.68,0,0,0,2.156.689h0a3.679,3.679,0,0,0,2.62-1.09l3.735-3.735a3.71,3.71,0,0,0,.4-4.775L51,41.087A23.609,23.609,0,0,0,52.692,37l4.211-.7a3.7,3.7,0,0,0,3.1-3.66V27.362A3.658,3.658,0,0,0,56.929,23.7Zm-.288,8.937a.325.325,0,0,1-.276.326l-5.264.877a1.683,1.683,0,0,0-1.354,1.241,20.065,20.065,0,0,1-2.181,5.252,1.7,1.7,0,0,0,.075,1.842l3.1,4.362a.341.341,0,0,1-.038.426L46.964,50.7a.318.318,0,0,1-.238.1.308.308,0,0,1-.188-.063l-4.349-3.1a1.694,1.694,0,0,0-1.842-.075,20.064,20.064,0,0,1-5.252,2.181A1.664,1.664,0,0,0,33.854,51.1l-.89,5.264a.325.325,0,0,1-.326.276H27.361a.325.325,0,0,1-.326-.276L26.158,51.1a1.683,1.683,0,0,0-1.241-1.354,20.834,20.834,0,0,1-5.139-2.106,1.735,1.735,0,0,0-.852-.226,1.651,1.651,0,0,0-.978.313l-4.387,3.121a.373.373,0,0,1-.188.063.336.336,0,0,1-.238-.1L9.4,47.078a.34.34,0,0,1-.038-.426l3.083-4.324a1.716,1.716,0,0,0,.075-1.855,19.876,19.876,0,0,1-2.206-5.239,1.716,1.716,0,0,0-1.354-1.241l-5.3-.9a.325.325,0,0,1-.276-.326V27.488a.325.325,0,0,1,.276-.326l5.227-.877a1.7,1.7,0,0,0,1.366-1.253A20.044,20.044,0,0,1,12.4,19.767a1.673,1.673,0,0,0-.088-1.83L9.187,13.55a.341.341,0,0,1,.038-.426L12.96,9.389a.318.318,0,0,1,.238-.1.308.308,0,0,1,.188.063l4.324,3.083a1.716,1.716,0,0,0,1.855.075A19.876,19.876,0,0,1,24.8,10.3,1.716,1.716,0,0,0,26.045,8.95l.9-5.3a.325.325,0,0,1,.326-.276H32.55a.325.325,0,0,1,.326.276l.877,5.227a1.7,1.7,0,0,0,1.253,1.366,20.344,20.344,0,0,1,5.377,2.206,1.7,1.7,0,0,0,1.842-.075l4.324-3.108a.373.373,0,0,1,.188-.063.336.336,0,0,1,.238.1l3.735,3.735a.34.34,0,0,1,.038.426l-3.1,4.349a1.694,1.694,0,0,0-.075,1.842,20.065,20.065,0,0,1,2.181,5.252,1.664,1.664,0,0,0,1.354,1.241l5.264.89a.325.325,0,0,1,.276.326v5.277Z" transform="translate(326 105.999)"/><path d="M149.047,136a12.947,12.947,0,1,0,12.948,12.947A12.956,12.956,0,0,0,149.047,136Zm0,22.511a9.563,9.563,0,1,1,9.563-9.563A9.57,9.57,0,0,1,149.047,158.512Z" transform="translate(206.959 -12.955)"/><rect class="a" width="96" height="96" transform="translate(308 88)"/></g></g></svg>