<svg xmlns="http://www.w3.org/2000/svg" viewBox="4784 1082 56 56"><defs><style>.a{fill:#fff;}.b{fill:none;}</style></defs><g transform="translate(4200 1082)"><g transform="translate(659.215 67.214)"><path class="a" d="M33.94,7.03,26.91,0,21.064,5.847,18.831,3.613,1.256,21.189a4.29,4.29,0,0,0,0,6.065l5.433,5.433a4.288,4.288,0,0,0,6.063,0L30.327,15.112l-2.233-2.233Zm-2.676.22L29.007,9.507,27.76,8.26,30.017,6ZM26.691,2.676l1.247,1.247L25.68,6.181,24.433,4.933Zm1.735,12.435L11.8,31.735a2.944,2.944,0,0,1-4.162,0L2.206,26.3a2.947,2.947,0,0,1,0-4.164L18.83,5.513Z" transform="translate(-47.214 -63.214) rotate(45)"/><path class="a" d="M12.019,4.714a.5.5,0,0,0-.725,0l-1.45,1.45a.5.5,0,0,0,0,.725l.356.369-.823.823L6.364,6.743l4.515-4.515v.881a.518.518,0,1,0,1.036,0V1.036A.489.489,0,0,0,11.4.518H8.807a.489.489,0,0,0-.518.518.489.489,0,0,0,.518.518h1.3L5.229,6.427a.466.466,0,0,0-.256.256l-.445.445L3.16,4.093,4.208,3.045a1.634,1.634,0,0,0,.454.064A1.526,1.526,0,0,0,6.216,1.554,1.526,1.526,0,0,0,4.662,0,1.526,1.526,0,0,0,3.108,1.554a1.574,1.574,0,0,0,.26.88L2.176,3.626a.473.473,0,0,0-.1.57L3.741,7.915l-.646.646a2.054,2.054,0,0,0-1.023-.272,2.072,2.072,0,1,0,2.072,2.072,2.056,2.056,0,0,0-.311-1.088L5.59,7.517,9.273,9.169a.312.312,0,0,0,.207.052.748.748,0,0,0,.363-.1L10.918,8l.375.389a.47.47,0,0,0,.363.155.347.347,0,0,0,.363-.207l1.45-1.45a.5.5,0,0,0,0-.725ZM4.662,1.036a.489.489,0,0,1,.518.518.489.489,0,0,1-.518.518.489.489,0,0,1-.518-.518A.489.489,0,0,1,4.662,1.036ZM2.072,11.4a1.036,1.036,0,1,1,1.036-1.036A1.039,1.039,0,0,1,2.072,11.4Zm9.584-4.144-.725-.725.725-.725.725.725Z" transform="translate(-50.423 -48.214) rotate(45)"/><rect class="b" width="56" height="56" transform="translate(-75.215 -67.214)"/></g></g></svg>