<svg xmlns="http://www.w3.org/2000/svg" viewBox="4744 1338 96 96"><defs><style>.a{fill:none;}</style></defs><g transform="translate(4684 1246)"><path d="M0,45.424,3.113,56.889,14.578,60,29.526,45.053,40.185,55.712A10.226,10.226,0,1,0,54.647,41.25l-6.8-6.8A17.671,17.671,0,0,0,59.235,12.529L58.223,9.191l-9.83,9.83-5.847-1.567L40.98,11.608l9.83-9.829L47.473.766A17.663,17.663,0,0,0,24.9,20.52l-1.246,1.246-12.7-12.7-2.538-3.4L4.589,3.213,3.4,4.4l-.063.063L2.147,5.654,4.6,9.487,8,12.025l12.7,12.7ZM36.318,10.359l2.815,10.51,10.51,2.816,6.175-6.175A13.491,13.491,0,0,1,39.265,30.8l-1.131-.263-24.8,24.8L6.52,53.482,4.669,46.667l24.8-24.8-.263-1.131A13.479,13.479,0,0,1,42.491,4.187ZM51.691,44.206a6.046,6.046,0,1,1-8.55,8.55L32.483,42.1l7-7a17.78,17.78,0,0,0,2.856.231c.155,0,.309-.007.463-.011ZM12.814,46.794a2.174,2.174,0,1,1-1.536-.636A2.173,2.173,0,0,1,12.814,46.794Z" transform="translate(78 109.995)"/><rect class="a" width="96" height="96" transform="translate(60 92)"/></g></svg>