<svg xmlns="http://www.w3.org/2000/svg" viewBox="4856 1082 56 56"><defs><style>.a{fill:#fff;}.b{fill:#95989a;}.c{fill:none;}</style></defs><g transform="translate(4200 1082)"><g transform="translate(668 15)"><path class="a" d="M3.148,0A3.161,3.161,0,1,1,0,3.161,3.155,3.155,0,0,1,3.148,0Z" transform="translate(12 20.484)"/><path class="a" d="M13.709,87.992a8.514,8.514,0,0,0-6.684,3.322A1.616,1.616,0,0,0,7.2,93.5a1.4,1.4,0,0,0,.935.363,1.417,1.417,0,0,0,1.115-.552,5.585,5.585,0,0,1,8.911,0,1.416,1.416,0,0,0,1.115.552,1.393,1.393,0,0,0,.935-.363,1.616,1.616,0,0,0,.179-2.181A8.514,8.514,0,0,0,13.709,87.992Z" transform="translate(1.316 -74.147)"/><path class="a" d="M14.822,82.736A14.193,14.193,0,0,0,3.683,88.273a1.616,1.616,0,0,0,.179,2.181,1.4,1.4,0,0,0,.935.363,1.417,1.417,0,0,0,1.115-.552,11.354,11.354,0,0,1,8.911-4.433,11.357,11.357,0,0,1,8.912,4.433,1.416,1.416,0,0,0,1.115.552,1.393,1.393,0,0,0,.935-.363,1.617,1.617,0,0,0,.179-2.181A14.2,14.2,0,0,0,14.822,82.736Z" transform="matrix(1, -0.017, 0.017, 1, -0.854, -75.627)"/><path class="b" d="M31.532,85.362a19.869,19.869,0,0,0-15.6-7.754,19.871,19.871,0,0,0-15.6,7.754,1.616,1.616,0,0,0,.179,2.181,1.4,1.4,0,0,0,.934.363,1.42,1.42,0,0,0,1.116-.552,17.034,17.034,0,0,1,13.367-6.649A17.036,17.036,0,0,1,29.3,87.353a1.42,1.42,0,0,0,1.116.552,1.393,1.393,0,0,0,.935-.363A1.616,1.616,0,0,0,31.532,85.362Z" transform="translate(0 -77.609)"/></g><rect class="c" width="56" height="56" transform="translate(656)"/></g></svg>