<svg xmlns="http://www.w3.org/2000/svg" viewBox="4184 761 40 32">
  <defs>
    <style>
      .cls-1 {
        fill: #000100;
      }

      .cls-2 {
        fill: none;
      }
    </style>
  </defs>
  <g id="password_shown" transform="translate(4184 763)">
    <path id="show_password" data-name="show password" class="cls-1" d="M2625.9,5266.94a10.8,10.8,0,0,1,2.792.373,10.47,10.47,0,0,1,2.616,1.093,10.044,10.044,0,0,1,2.226,1.773,8.962,8.962,0,0,1,1.622,2.426,9.133,9.133,0,0,1,.6,1.787,8.561,8.561,0,0,1,.2,1.88h-1.257a7.327,7.327,0,0,0-.352-2.307,7.428,7.428,0,0,0-.981-1.96,8.167,8.167,0,0,0-1.471-1.586,9.25,9.25,0,0,0-1.824-1.173,9.6,9.6,0,0,0-2.049-.733,9.22,9.22,0,0,0-4.263,0,9.621,9.621,0,0,0-2.05.734,9.146,9.146,0,0,0-1.823,1.173,8.065,8.065,0,0,0-1.471,1.586,7.28,7.28,0,0,0-1.333,4.267h-1.258a8.616,8.616,0,0,1,.2-1.879,9.065,9.065,0,0,1,.6-1.787,8.869,8.869,0,0,1,1.622-2.427,9.931,9.931,0,0,1,2.225-1.773,10.528,10.528,0,0,1,2.617-1.093,10.779,10.779,0,0,1,2.8-.372Zm0,5.333a3.492,3.492,0,0,1,1.459.306,3.9,3.9,0,0,1,2.012,2.135,4.223,4.223,0,0,1,0,3.106,3.894,3.894,0,0,1-2.012,2.133,3.574,3.574,0,0,1-2.93,0,3.891,3.891,0,0,1-2.013-2.134,4.228,4.228,0,0,1,0-3.107,3.9,3.9,0,0,1,2.013-2.134A3.476,3.476,0,0,1,2625.9,5272.273Zm0,6.666a2.323,2.323,0,0,0,.981-.213,2.6,2.6,0,0,0,1.346-1.426,2.819,2.819,0,0,0,0-2.067,2.6,2.6,0,0,0-1.345-1.427,2.381,2.381,0,0,0-1.962,0,2.6,2.6,0,0,0-1.346,1.426,2.814,2.814,0,0,0,0,2.067,2.6,2.6,0,0,0,1.345,1.427,2.317,2.317,0,0,0,.981.212Z" transform="translate(-2605.831 -5258.636)"/>
    <rect id="Rectangle_1090" data-name="Rectangle 1090" class="cls-2" width="40" height="32" transform="translate(0 -2)"/>
  </g>
</svg>
