<svg xmlns="http://www.w3.org/2000/svg" viewBox="2658 713 48 48">
  <defs>
    <style>
      .cls-1 {
        fill: none;
      }
    </style>
  </defs>
  <g id="wifi" transform="translate(2658 713)">
    <g id="Secured_network" data-name="Secured network" transform="translate(6 10.5)">
      <g id="padlock" transform="translate(22.056 11.801)">
        <path id="Path_885" data-name="Path 885" d="M48.309,6.99A.969.969,0,0,0,47.6,6.7h-.335V4.688a4.511,4.511,0,0,0-1.381-3.306,4.648,4.648,0,0,0-6.613,0,4.511,4.511,0,0,0-1.381,3.306V6.7h-.335a1,1,0,0,0-1,1v6.027a1,1,0,0,0,1,1H47.6a1,1,0,0,0,1-1V7.7A.968.968,0,0,0,48.309,6.99ZM45.254,6.7H39.9V4.688a2.581,2.581,0,0,1,.785-1.894,2.678,2.678,0,0,1,3.788,0,2.581,2.581,0,0,1,.785,1.894Z" transform="translate(-36.548)"/>
      </g>
      <g id="wifi-connection-signal-symbol" transform="translate(0 0)">
        <g id="Wi-Fi" transform="translate(0)">
          <g id="Group_1134" data-name="Group 1134">
            <path id="Path_886" data-name="Path 886" d="M17.3,101.078a3.16,3.16,0,1,0,3.16,3.16A3.161,3.161,0,0,0,17.3,101.078ZM34.228,88.357a22.07,22.07,0,0,0-33.858,0,1.58,1.58,0,0,0,2.419,2.033,18.911,18.911,0,0,1,29.02,0,1.58,1.58,0,0,0,2.419-2.032ZM17.3,87.6A15.77,15.77,0,0,0,5.207,93.251a1.58,1.58,0,0,0,2.419,2.033A12.614,12.614,0,0,1,17.3,90.762a12.907,12.907,0,0,1,7.3,2.335,4.928,4.928,0,0,1,1.521-1.016,7.2,7.2,0,0,1,1.774-.389A15.591,15.591,0,0,0,17.3,87.6Zm0,7.156a9.459,9.459,0,0,0-7.255,3.389,1.58,1.58,0,0,0,2.419,2.033A6.308,6.308,0,0,1,17.3,97.918a6.456,6.456,0,0,1,4.412,1.8,1.524,1.524,0,0,1,.387-.861,1.386,1.386,0,0,1,.852-.335v-1.9A9.133,9.133,0,0,0,17.3,94.758Z" transform="translate(0.001 -80.446)"/>
          </g>
        </g>
      </g>
    </g>
    <rect id="Rectangle_1070" data-name="Rectangle 1070" class="cls-1" width="48" height="48" transform="translate(0 0)"/>
  </g>
</svg>
