<svg xmlns="http://www.w3.org/2000/svg" viewBox="2797 3535 85.312 93"><defs><style>.a,.c,.d{fill:none;}.a,.c,.d,.e{stroke:#222;}.b,.e{fill:#222;}.c,.e{stroke-linecap:round;stroke-width:2px;}.c,.d,.e{stroke-linejoin:round;stroke-miterlimit:10;}.d{stroke-width:1.2px;}</style></defs><g transform="translate(2720 3251)"><g transform="translate(-69.688 130)"><g transform="translate(225.6 154) rotate(90)"><line class="a" y2="42.7" transform="translate(5.3 -3.6)"/><line class="a" y2="42.7" transform="translate(7.3 -3.6)"/><line class="a" y2="42.7" transform="translate(9.3 -3.6)"/><line class="a" y2="42.7" transform="translate(11.3 -3.6)"/><line class="a" y2="42.7" transform="translate(13.3 -3.6)"/><line class="a" y2="42.7" transform="translate(15.3 -3.6)"/><line class="a" y2="42.7" transform="translate(17.3 -3.6)"/><line class="a" y2="42.7" transform="translate(19.3 -3.6)"/><line class="a" y2="42.7" transform="translate(21.3 -3.6)"/><line class="a" y2="42.7" transform="translate(23.3 -3.6)"/><rect class="b" width="3.6" height="48" rx="1" transform="translate(0 -6.4)"/><rect class="b" width="3.6" height="48" rx="1" transform="translate(25.2 -6.4)"/></g><g transform="translate(147.688 180)"><path class="c" d="M47.219,66h9.513a2,2,0,0,1,2.039,2.039h0a2,2,0,0,1-2.039,2.039H20.039A2.044,2.044,0,0,1,18,68.039h0A2,2,0,0,1,20.039,66H39.745" transform="translate(-18 -22.511)"/><path class="c" d="M54.067,87.513H32.888L27.928,78h31.1Z" transform="translate(-23.128 -26.356)"/><path class="c" d="M52.463,53.181h.34A2.408,2.408,0,0,0,55.181,50.8V46.386H44.309s-2.039.544-2.039-2.039a2.056,2.056,0,0,1,2.039-2.039H55.181v-3.4H49.065a2,2,0,0,1-2.039-2.039,2.056,2.056,0,0,1,2.039-2.039h6.116V28.378A2.408,2.408,0,0,0,52.8,26H30.378A2.408,2.408,0,0,0,28,28.378V50.8a2.408,2.408,0,0,0,2.378,2.378h.34" transform="translate(-21.205 -9.691)"/><path class="c" d="M36.194,17h5.844l3.194,6.116H33Z" transform="translate(-22.807 -6.807)"/><g transform="translate(16.309 0)"><path class="d" d="M42,10.154V8.116c0-1.087,1.223-2.039,2.718-2.039h2.567C48.78,6.077,50,5.194,50,4.039V2" transform="translate(-42 -2)"/></g><path class="e" d="M32.073,82.819h-1.3L28.26,78h6.326l-1.444,2.769Z" transform="translate(-15.524 -16.819)"/><path class="c" d="M32.073,82.819h-1.3L28.26,78h6.326l-1.444,2.769Z" transform="translate(-5.886 -16.819)"/></g><path class="b" d="M-6158.7,344.8V329.741s-.1-6.141,8.8-6.141h11.8v1h-11.8c-6.5,0-7.6,3.8-7.6,5.141V344.8" transform="translate(6330.1 -164.8)"/><path class="b" d="M0,0,6.788,6.788H0Z" transform="translate(167.2 169) rotate(-45)"/><path class="b" d="M0,0,5.657,5.657H0Z" transform="translate(168 175) rotate(-45)"/></g></g></svg>