<svg xmlns="http://www.w3.org/2000/svg" viewBox="7449 3571 48 48"><defs><style>.a{fill:none;}.b{fill:#222;}</style></defs><g transform="translate(7449 3571)"><rect class="a" width="48" height="48"/><g transform="translate(8.4 9.6)"><path class="b" d="M147.7,192.733l-6.38-3.786a.771.771,0,0,0-.773-.006l-6.464,3.625a.766.766,0,0,0-.393.663l-.09,7.417a.769.769,0,0,0,.38.676l6.38,3.786a.787.787,0,0,0,.393.109.812.812,0,0,0,.38-.1l6.47-3.631a.766.766,0,0,0,.393-.663l.09-7.417A.789.789,0,0,0,147.7,192.733Zm-7.339,11.331-6-3.419.12-6.541,6,3.48Zm.478-7.56-5.64-3.275,5.76-3.445,6.12,3.625S143.585,194.972,140.836,196.5Zm6.36,4.261-6.066,3.3.186-6.48,6-3.24Z" transform="translate(-124.996 -178.144)"/><path class="b" d="M378.653,389.894a.773.773,0,0,0-.8,1.32.763.763,0,0,0,.4.109.78.78,0,0,0,.663-.373A.761.761,0,0,0,378.653,389.894Z" transform="translate(-353.178 -366.15)"/><path class="b" d="M423.153,416.8a.776.776,0,0,0-.8,1.326.763.763,0,0,0,.4.109.775.775,0,0,0,.406-1.436Z" transform="translate(-394.813 -391.322)"/><path class="b" d="M467.62,443.828a.774.774,0,1,0-.547,1.32.792.792,0,0,0,.547-.225.78.78,0,0,0,.225-.547A.729.729,0,0,0,467.62,443.828Z" transform="translate(-436.279 -416.505)"/><path class="b" d="M90.374,385.78a.77.77,0,0,0,.38,1.442.812.812,0,0,0,.38-.1.773.773,0,1,0-.76-1.346Z" transform="translate(-84.187 -362.313)"/><path class="b" d="M45.474,410.98a.77.77,0,0,0,.38,1.442.812.812,0,0,0,.38-.1.773.773,0,0,0,.3-1.049A.782.782,0,0,0,45.474,410.98Z" transform="translate(-42.177 -385.891)"/><path class="b" d="M.773,436.1a.773.773,0,1,0,.547,1.32.773.773,0,0,0-.547-1.32Z" transform="translate(0 -409.488)"/><path class="b" d="M236.273,148.848a.773.773,0,1,0-.773-.773A.775.775,0,0,0,236.273,148.848Z" transform="translate(-220.338 -139.281)"/><path class="b" d="M236.273,107.348h0a.773.773,0,1,0-.773-.773A.775.775,0,0,0,236.273,107.348Z" transform="translate(-220.338 -100.453)"/><path class="b" d="M236.273,65.748a.773.773,0,1,0-.773-.773A.775.775,0,0,0,236.273,65.748Z" transform="translate(-220.338 -61.531)"/><path class="b" d="M236.273,24.248a.769.769,0,1,0-.547-.225A.792.792,0,0,0,236.273,24.248Z" transform="translate(-220.338 -22.703)"/></g></g></svg>