<svg xmlns="http://www.w3.org/2000/svg" viewBox="7769 3331 64 64"><g transform="translate(7401 3251)"><g transform="translate(368 80)"><path d="M0,58.653l3.149-3.138L20.638,72.942V66.591L6.336,52.377,9.56,49.164,20.638,60.2V53.776l-7.853-7.863L16.009,42.7l9.219,9.186V83.754Z" transform="translate(0 -26.558)"/><path d="M127.49,58.753l-3.149-3.138L106.852,73.042V66.691l14.3-14.214-3.225-3.213L106.852,60.3V53.876l7.891-7.863L111.519,42.8,102.3,51.986V83.854Z" transform="translate(-63.49 -26.62)"/><path d="M80.676,64,78.4,61.732V2.268L80.676,0l2.276,2.268v59.5Z" transform="translate(-48.657)"/><path d="M56.594,18.6V30.508L50.6,24.573Z" transform="translate(-31.404 -11.569)"/><path d="M102.4,18.5l5.88,5.859c-1.48,1.474-4.4,4.574-5.88,6.086Z" transform="translate(-63.552 -11.507)"/></g></g></svg>