<svg xmlns="http://www.w3.org/2000/svg" viewBox="7449 3523 48 48"><defs><style>.a{fill:none;}.b{fill:#222;}</style></defs><g transform="translate(7409 3263)"><rect class="a" width="48" height="48" transform="translate(40 260)"/><g transform="translate(51.574 275.171)"><path class="b" d="M23.576,61.217H.795A.8.8,0,0,0,0,62.012V78.966a.8.8,0,0,0,.795.795H23.576a.8.8,0,0,0,.795-.795V62.012A.8.8,0,0,0,23.576,61.217Zm0,17.749H.795V66.659H23.576V78.966Zm0-13.082H.795V62.012H23.576v3.872Z" transform="translate(0 -61.217)"/><g transform="translate(21.048 2.33)"><g transform="translate(0 0)"><path class="b" d="M422.037,103.247a.73.73,0,1,0,.73.73A.731.731,0,0,0,422.037,103.247Z" transform="translate(-421.307 -103.247)"/></g></g><g transform="translate(18.832 2.33)"><g transform="translate(0 0)"><path class="b" d="M361.4,103.247a.73.73,0,1,0,.73.73A.731.731,0,0,0,361.4,103.247Z" transform="translate(-360.665 -103.247)"/></g></g><g transform="translate(16.616 2.33)"><g transform="translate(0 0)"><path class="b" d="M300.754,103.247a.73.73,0,1,0,.73.73A.731.731,0,0,0,300.754,103.247Z" transform="translate(-300.024 -103.247)"/></g></g><g transform="translate(7.296 8.639)"><path class="b" d="M157.192,245.111l-2.6-2.214a.795.795,0,1,0-1.03,1.211l1.89,1.608-1.89,1.608a.795.795,0,1,0,1.03,1.21l2.6-2.214A.8.8,0,0,0,157.192,245.111Z" transform="translate(-153.281 -242.708)"/></g><g transform="translate(12.346 13.066)"><path class="b" d="M263.306,335.716h-3.139a.795.795,0,1,0,0,1.589h3.139a.795.795,0,1,0,0-1.589Z" transform="translate(-259.372 -335.716)"/></g></g></g></svg>