<svg xmlns="http://www.w3.org/2000/svg" viewBox="7449 3427 48 48"><defs><style>.a,.c{fill:none;}.a{stroke:#222;stroke-width:0.5px;}.b{fill:#222;}</style></defs><g transform="translate(7401 3251)"><g transform="translate(48 176)"><g transform="translate(11.614 13.714)"><path class="a" d="M0,0H24.621V14.259H0Z" transform="translate(0 2.61)"/><path class="a" d="M39.939,15.63H16.13a.421.421,0,0,0-.432.409v2.2H40.319V16.023a.421.421,0,0,0-.432-.409Z" transform="translate(-15.698 -15.614)"/><path class="a" d="M40.492,102.609H15.867v2.864a.421.421,0,0,0,.432.409H40.078a.421.421,0,0,0,.432-.409v-2.864Z" transform="translate(-15.867 -85.74)"/><path class="b" d="M48.388,65.185H29.871a.268.268,0,0,1,0-.534H48.388a.268.268,0,0,1,0,.534Z" transform="translate(-26.736 -55.309)"/><rect class="b" width="2.118" height="2.512" rx="0.25" transform="translate(11.26 3.433)"/><path class="b" d="M74.971,47.651H74.9l-.229-.7H75.2Z" transform="translate(-62.201 -41.248)"/><path class="b" d="M74.971,47.651H74.9l-.229-.7H75.2Z" transform="translate(-63.059 -41.248)"/></g><rect class="c" width="48" height="48"/></g></g></svg>