<svg xmlns="http://www.w3.org/2000/svg" viewBox="7449 3619 48 48"><defs><style>.a{fill:none;}.b{fill:#222;}</style></defs><g transform="translate(7449 3619)"><rect class="a" width="48" height="48"/><g transform="translate(13.2 13.2)"><g transform="translate(0 0)"><g transform="translate(0)"><path class="b" d="M253.917,423.182c-.178.045-.36.084-.54.118a.877.877,0,0,0-.342,1.575.861.861,0,0,0,.658.145c.215-.04.431-.087.643-.141a.874.874,0,0,0-.42-1.7Z" transform="translate(-240.935 -403.443)"/><path class="b" d="M412.712,137.933a.872.872,0,0,0,.324.44.863.863,0,0,0,.774.116.876.876,0,0,0,.551-1.105c-.069-.209-.145-.419-.226-.623a.866.866,0,0,0-1.129-.488.877.877,0,0,0-.484,1.137C412.59,137.581,412.654,137.757,412.712,137.933Z" transform="translate(-393.308 -129.918)"/><path class="b" d="M321.772,394.056c-.153.1-.311.2-.471.293a.878.878,0,0,0-.067,1.473.864.864,0,0,0,.935.042c.189-.11.378-.227.56-.348a.879.879,0,0,0,.246-1.212A.864.864,0,0,0,321.772,394.056Z" transform="translate(-305.968 -375.567)"/><path class="b" d="M429.37,208.152a.868.868,0,1,0-1.735.069c.007.185.009.372,0,.556a.876.876,0,0,0,.369.735.862.862,0,0,0,.48.159.871.871,0,0,0,.887-.855C429.381,208.6,429.379,208.372,429.37,208.152Z" transform="translate(-407.779 -197.694)"/><path class="b" d="M378.524,344.244a.864.864,0,0,0-1.216.175c-.11.148-.226.294-.345.435a.879.879,0,0,0,.1,1.233c.021.018.042.034.064.049a.864.864,0,0,0,1.16-.148c.142-.168.28-.342.412-.519A.879.879,0,0,0,378.524,344.244Z" transform="translate(-359.263 -328.055)"/><path class="b" d="M415.078,279.392a.867.867,0,0,0-1.088.573c-.055.176-.116.353-.181.526a.879.879,0,0,0,.311,1.026.866.866,0,0,0,1.312-.4c.078-.206.15-.417.216-.626A.876.876,0,0,0,415.078,279.392Z" transform="translate(-394.54 -266.365)"/><path class="b" d="M9.194,21.552a8.919,8.919,0,0,1-2.227-.713l-.025-.013c-.166-.079-.333-.163-.494-.252h0A9.15,9.15,0,0,1,3.393,7.31,9.056,9.056,0,0,1,5.62,5.078l.031-.022a9.022,9.022,0,0,1,10.173-.082l-.678.987c-.189.275-.073.475.258.445l2.947-.266a.489.489,0,0,0,.439-.64L18,2.629c-.089-.322-.315-.361-.5-.086l-.68.99A10.661,10.661,0,0,0,8.956,1.85q-.417.073-.822.177H8.128L8.1,2.037A10.7,10.7,0,0,0,2.159,6.045c-.012.015-.025.03-.037.046-.049.067-.1.135-.146.2-.078.112-.155.227-.229.342-.009.014-.016.028-.024.042A10.843,10.843,0,0,0,.012,13.039c0,.007,0,.015,0,.022.01.219.027.442.051.661,0,.014,0,.028.007.042.024.22.055.441.093.662a10.821,10.821,0,0,0,3.022,5.854l.011.012,0,0a10.961,10.961,0,0,0,1.383,1.165,10.665,10.665,0,0,0,4.306,1.815.874.874,0,0,0,.306-1.722Z" transform="translate(0 -1.688)"/><path class="b" d="M206.69,83.2a.705.705,0,0,0-.7.708v7.051l6.4,3.333a.694.694,0,0,0,.322.079.7.7,0,0,0,.625-.383.71.71,0,0,0-.3-.953l-5.642-2.938V83.906A.705.705,0,0,0,206.69,83.2Z" transform="translate(-196.423 -79.386)"/></g></g></g></g></svg>