<svg xmlns="http://www.w3.org/2000/svg" viewBox="1414 1815 94.968 94.968"><defs><style>.a,.b,.c{fill:rgba(0,0,0,0);stroke-linecap:round;stroke-linejoin:round;stroke-miterlimit:10;}.a{stroke:#000;stroke-width:2.5px;}.b,.c{stroke:#010000;}.b{stroke-width:2px;}.d{fill:none;}</style></defs><g transform="translate(1251 1719)"><g transform="translate(163 96)"><g transform="translate(3.067 22.691)"><ellipse class="a" cx="25.049" cy="25.207" rx="25.049" ry="25.207" transform="translate(20.039 0)"/><ellipse class="b" cx="2.505" cy="2.521" rx="2.505" ry="2.521" transform="translate(42.583 22.687)"/><path class="b" d="M59.5,37.444h0A2.468,2.468,0,0,1,57,34.923v-8.4A2.52,2.52,0,0,1,59.5,24h0a2.52,2.52,0,0,1,2.5,2.521v8.4A2.468,2.468,0,0,1,59.5,37.444Z" transform="translate(-14.417 -18.959)"/><path class="b" d="M75.187,63.251h0a2.411,2.411,0,0,1-3.507,0l-5.928-5.966a2.447,2.447,0,0,1,0-3.529h0a2.41,2.41,0,0,1,3.507,0l5.928,5.966A2.447,2.447,0,0,1,75.187,63.251Z" transform="translate(-15.737 -23.591)"/><path class="b" d="M52.187,53.756h0a2.447,2.447,0,0,1,0,3.529l-5.928,5.966a2.411,2.411,0,0,1-3.507,0h0a2.447,2.447,0,0,1,0-3.529l5.928-5.966A2.411,2.411,0,0,1,52.187,53.756Z" transform="translate(-11.941 -23.591)"/><path class="c" d="M30.214,22H21.029a3.36,3.36,0,0,0-3.34,3.361v16.8a3.36,3.36,0,0,1-3.34,3.361H6" transform="translate(-6 -18.639)"/></g><rect class="d" width="94.968" height="94.968" transform="translate(0 0)"/></g></g></svg>