<svg xmlns="http://www.w3.org/2000/svg" viewBox="1421 2027.847 80.062 54.392"><g transform="translate(1251 1719)"><g transform="translate(163 308.847)"><rect width="80.062" height="3.965" rx="1.983" transform="translate(7 25.113)"/><path d="M12.2.256a.941.941,0,0,0-1.291,0,.829.829,0,0,0,0,1.209L17.453,7.66H.9a.876.876,0,0,0-.9.856.885.885,0,0,0,.9.868H17.453l-6.545,6.183a.844.844,0,0,0,0,1.222.941.941,0,0,0,1.291,0l8.095-7.661a.81.81,0,0,0,0-1.209Z" transform="translate(7 54.392) rotate(-90)"/><path d="M12.2.256a.941.941,0,0,0-1.291,0,.829.829,0,0,0,0,1.209L17.453,7.66H.9a.876.876,0,0,0-.9.856.885.885,0,0,0,.9.868H17.453l-6.545,6.183a.844.844,0,0,0,0,1.222.941.941,0,0,0,1.291,0l8.095-7.661a.81.81,0,0,0,0-1.209Z" transform="translate(87.01 0) rotate(90)"/><path d="M12.2.256a.941.941,0,0,0-1.291,0,.829.829,0,0,0,0,1.209L17.453,7.66H.9a.876.876,0,0,0-.9.856.885.885,0,0,0,.9.868H17.453l-6.545,6.183a.844.844,0,0,0,0,1.222.941.941,0,0,0,1.291,0l8.095-7.661a.81.81,0,0,0,0-1.209Z" transform="translate(69.966 54.392) rotate(-90)"/><path d="M12.2.256a.941.941,0,0,0-1.291,0,.829.829,0,0,0,0,1.209L17.453,7.66H.9a.876.876,0,0,0-.9.856.885.885,0,0,0,.9.868H17.453l-6.545,6.183a.844.844,0,0,0,0,1.222.941.941,0,0,0,1.291,0l8.095-7.661a.81.81,0,0,0,0-1.209Z" transform="translate(24.044 0) rotate(90)"/></g></g></svg>