<svg xmlns="http://www.w3.org/2000/svg" viewBox="1793 2013 96 96"><defs><style>.a,.c,.d{fill:none;}.a,.c{stroke:#000;stroke-miterlimit:10;}.a{stroke-width:2.5px;}.b{fill:#222;}.c{stroke-linecap:round;stroke-linejoin:round;stroke-width:0.75px;}</style></defs><g transform="translate(1251 1719)"><g transform="translate(531 300.947)"><g transform="translate(46 9.053)"><path class="a" d="M25.738,51.183a12.71,12.71,0,0,1-13.19,12.67A12.872,12.872,0,0,1,.5,51.807a12.365,12.365,0,0,1,3.012-8.828V11.1A10.7,10.7,0,0,1,8.29,1.956a8.347,8.347,0,0,1,9.139-.312,11.288,11.288,0,0,1,5.4,9.658V42.979A12.56,12.56,0,0,1,25.738,51.183Z" transform="translate(-0.478 -0.435)"/><path class="b" d="M17.682,21.866V43.987a7.336,7.336,0,0,1,3.739,6.439,8.4,8.4,0,0,1-10.489,8.1,8.239,8.239,0,0,1-6.231-8.1c0-2.8,1.454-4.777,3.635-6.335l-.1-22.329A4.363,4.363,0,0,1,11.451,17.5a6.188,6.188,0,0,1,3.323.312A4.338,4.338,0,0,1,17.682,21.866Z" transform="translate(-0.316 0.219)"/><line class="c" x2="4.651" transform="translate(24.537 20.945)"/><line class="c" x2="4.651" transform="translate(24.537 16.426)"/><line class="c" x2="8.61" transform="translate(24.228 11.907)"/><line class="c" x2="4.651" transform="translate(24.537 34.39)"/><line class="c" x2="4.651" transform="translate(24.537 29.871)"/><line class="c" x2="8.61" transform="translate(24.228 25.408)"/></g><rect class="d" width="96" height="96" transform="translate(11 -6.947)"/></g></g></svg>