<svg xmlns="http://www.w3.org/2000/svg" viewBox="5536 1807 104 104"><defs><style>.a,.b{fill:none;}.a{stroke:#000;stroke-width:3px;}</style></defs><g transform="translate(5000 1719)"><g transform="translate(0 -16)"><g transform="translate(545.79 131.35)"><path d="M12,13.273a2.212,2.212,0,1,0,2.192,2.212A2.2,2.2,0,0,0,12,13.273ZM23.743,5.539a15.218,15.218,0,0,0-23.486,0A1.112,1.112,0,0,0,.391,7.1a1.088,1.088,0,0,0,1.544-.135,13.04,13.04,0,0,1,20.13,0,1.089,1.089,0,0,0,1.544.135A1.112,1.112,0,0,0,23.743,5.539ZM12,4.424A10.9,10.9,0,0,0,3.612,8.38a1.112,1.112,0,0,0,.134,1.558A1.088,1.088,0,0,0,5.291,9.8a8.692,8.692,0,0,1,13.42,0,1.088,1.088,0,0,0,1.544.135,1.113,1.113,0,0,0,.134-1.558A10.9,10.9,0,0,0,12,4.424Zm0,4.424a6.537,6.537,0,0,0-5.033,2.373A1.112,1.112,0,0,0,7.1,12.78a1.088,1.088,0,0,0,1.544-.135,4.344,4.344,0,0,1,6.709,0,1.088,1.088,0,0,0,1.544.135,1.112,1.112,0,0,0,.134-1.558A6.537,6.537,0,0,0,12,8.849Z" transform="translate(13.964 24.861) rotate(51)"/><path d="M21.246,8.334a.885.885,0,0,0-1.282,0L17.4,10.9a.885.885,0,0,0,0,1.282l.63.652-1.454,1.454L11.25,11.919l7.981-7.981V5.495a.916.916,0,0,0,1.832,0V1.832a.865.865,0,0,0-.916-.916H15.568a.865.865,0,0,0-.916.916.865.865,0,0,0,.916.916h2.289L9.244,11.361a.823.823,0,0,0-.453.453L8,12.6,5.586,7.235,7.439,5.382a2.89,2.89,0,0,0,.8.112A2.7,2.7,0,0,0,10.99,2.747,2.7,2.7,0,0,0,8.242,0,2.7,2.7,0,0,0,5.495,2.747,2.783,2.783,0,0,0,5.955,4.3L3.846,6.41a.836.836,0,0,0-.183,1.007l2.95,6.574L5.471,15.134a3.631,3.631,0,0,0-1.808-.482,3.663,3.663,0,1,0,3.663,3.663,3.634,3.634,0,0,0-.55-1.923l3.105-3.1,6.511,2.922a.551.551,0,0,0,.366.092,1.322,1.322,0,0,0,.641-.183l1.9-1.969.663.687a.831.831,0,0,0,.641.275.613.613,0,0,0,.641-.366L23.81,12.18a.885.885,0,0,0,0-1.282Zm-13-6.5a.865.865,0,0,1,.916.916.865.865,0,0,1-.916.916.865.865,0,0,1-.916-.916A.865.865,0,0,1,8.242,1.832ZM3.663,20.147a1.832,1.832,0,1,1,1.832-1.832A1.837,1.837,0,0,1,3.663,20.147Zm16.942-7.326-1.282-1.282,1.282-1.282,1.282,1.282Z" transform="translate(35.868 20.194) rotate(-45)"/><path class="a" d="M1643.7,503.009V475.049s.185-3.349,2.4-3.349h61.188s2.713,0,2.744,3.726,0,39.89,0,39.89-.216,3.935-2.806,3.935h-53.542" transform="translate(-1626.082 -476.05)"/></g><rect class="b" width="104" height="104" transform="translate(536 104)"/></g></g></svg>