<svg xmlns="http://www.w3.org/2000/svg" viewBox="5160 2007 104 104"><defs><style>.a{fill:none;}</style></defs><g transform="translate(4624 1719)"><g transform="translate(560 312)"><g transform="translate(5 5)"><path d="M38.645,16.506s-9.18-18.943-27.2-7.09l5.213,3.213s.907,1-.227,1.551l-15.3,6.868s-1.02.443-1.02-.665L0,3.656s.227-1.329,1.473-.443L6.233,6.2A24.3,24.3,0,0,1,22.892,0S38.872-.443,44.085,15.4a2.553,2.553,0,0,1-1.927,2.769A3.768,3.768,0,0,1,38.645,16.506Z" transform="translate(0 0.001)"/><path d="M6.442,27.529s9.18,18.943,27.2,7.2l-5.213-3.213s-.907-1,.227-1.551l15.3-6.757s1.02-.443,1.02.665V40.49s-.227,1.329-1.473.443l-4.76-3.1a24.9,24.9,0,0,1-16.659,6.2S6.1,44.478,1,28.637a2.553,2.553,0,0,1,1.927-2.769A3.7,3.7,0,0,1,6.442,27.529Z" transform="translate(0.131 2.493)"/></g><rect class="a" width="104" height="104" transform="translate(-24 -24)"/></g></g></svg>