<svg xmlns="http://www.w3.org/2000/svg" xmlns:xlink="http://www.w3.org/1999/xlink" viewBox="-4228 -2134 800 480">
  <defs>
    <style>
      .cls-1 {
        clip-path: url(#clip-UTILITIES_5);
      }

      .cls-2 {
        fill: #222;
      }

      .cls-3, .cls-4 {
        fill: #fff;
      }

      .cls-3, .cls-7 {
        font-size: 25px;
      }

      .cls-3 {
        font-family: Roboto-Regular, Roboto;
      }

      .cls-10, .cls-11, .cls-13, .cls-15, .cls-5, .cls-9 {
        fill: none;
      }

      .cls-6 {
        fill: #eee;
      }

      .cls-12, .cls-7 {
        font-family: Roboto-Medium, Roboto;
        font-weight: 500;
      }

      .cls-8 {
        fill: #1e201d;
      }

      .cls-10, .cls-9 {
        stroke: #010000;
      }

      .cls-10, .cls-15, .cls-9 {
        stroke-linecap: round;
        stroke-linejoin: round;
      }

      .cls-10, .cls-13, .cls-15, .cls-9 {
        stroke-miterlimit: 10;
      }

      .cls-11, .cls-9 {
        stroke-width: 2px;
      }

      .cls-10 {
        stroke-width: 1.5px;
      }

      .cls-11 {
        stroke: #000;
      }

      .cls-12 {
        font-size: 23px;
      }

      .cls-13, .cls-15 {
        stroke: #2e2e2e;
      }

      .cls-14 {
        fill: #2e2e2e;
      }

      .cls-15 {
        stroke-width: 0.75px;
      }

      .cls-16 {
        fill: #95989a;
      }
    </style>
    <clipPath id="clip-UTILITIES_5">
      <rect x="-4228" y="-2134" width="800" height="480"/>
    </clipPath>
  </defs>
  <g id="UTILITIES_5" data-name="UTILITIES – 5" class="cls-1">
    <rect class="cls-4" x="-4228" y="-2134" width="800" height="480"/>
    <rect id="Top_Bar" data-name="Top Bar" class="cls-2" width="800" height="64" transform="translate(-4228 -2134)"/>
    <text id="Utilities" class="cls-3" transform="translate(-4148 -2092)"><tspan x="0" y="0">Utilities</tspan></text>
    <g id="Back_Icon" data-name="Back Icon" transform="translate(-4220 -2134)">
      <g id="round-left-button" transform="translate(25.333 21.334)">
        <g id="Group_1447" data-name="Group 1447">
          <path id="Path_1287" data-name="Path 1287" class="cls-4" d="M150,106.444a1.486,1.486,0,0,0-2.1,0l-9.166,9.166a1.486,1.486,0,0,0,0,2.1l9.166,9.166a1.486,1.486,0,1,0,2.1-2.1l-8.114-8.115L150,108.545A1.485,1.485,0,0,0,150,106.444Z" transform="translate(-138.294 -106.008)"/>
        </g>
      </g>
      <rect id="Rectangle_1396" data-name="Rectangle 1396" class="cls-5" width="64" height="64"/>
    </g>
    <g id="Power_Button" data-name="Power Button" transform="translate(-3508 -2134)">
      <g id="power-button-off" transform="translate(13.333 12)">
        <path id="Path_1290" data-name="Path 1290" class="cls-4" d="M204.022,21.169a3.067,3.067,0,0,0,3.025-3.024V3.024a2.9,2.9,0,0,0-.9-2.126A2.966,2.966,0,0,0,201.9.9a2.905,2.905,0,0,0-.9,2.126V18.145a3.066,3.066,0,0,0,3.024,3.024Z" transform="translate(-185.877 0)"/>
        <path id="Path_1291" data-name="Path 1291" class="cls-4" d="M52.663,80.3a17.8,17.8,0,0,0-5.351-6.379,2.934,2.934,0,0,0-2.244-.591,2.8,2.8,0,0,0-1.985,1.181,2.876,2.876,0,0,0-.579,2.233,2.94,2.94,0,0,0,1.17,2,12.064,12.064,0,0,1,3.579,4.276A12.048,12.048,0,0,1,47.56,93.1a11.98,11.98,0,0,1-6.45,6.45,11.964,11.964,0,0,1-9.379,0,11.977,11.977,0,0,1-6.45-6.45,12.046,12.046,0,0,1,.307-10.077,12.067,12.067,0,0,1,3.579-4.276,2.943,2.943,0,0,0,1.17-2,2.875,2.875,0,0,0-.579-2.233,2.792,2.792,0,0,0-1.973-1.181,2.987,2.987,0,0,0-2.256.591,18.037,18.037,0,0,0-5.812,21.523,17.925,17.925,0,0,0,9.663,9.662,17.908,17.908,0,0,0,14.081,0,17.92,17.92,0,0,0,9.663-9.662,17.654,17.654,0,0,0,1.441-7.041A17.872,17.872,0,0,0,52.663,80.3Z" transform="translate(-18.275 -67.239)"/>
      </g>
      <rect id="Rectangle" class="cls-5" width="64" height="64"/>
    </g>
    <g id="Print_From_Storage_Icon" data-name="Print From Storage Icon" transform="translate(-4212 -2054)">
      <rect id="Rectangle-2" data-name="Rectangle" class="cls-6" width="320" height="384" rx="8"/>
      <text id="PRINT_FROM_STORAGE" data-name="PRINT FROM 
STORAGE" class="cls-7" transform="translate(160 260)"><tspan x="-75.702" y="0">PRINT FROM </tspan><tspan x="-55.157" y="30">STORAGE</tspan></text>
      <g id="USB_Icon" data-name="USB Icon" transform="translate(80 72)">
        <path id="usb-port" d="M49.81,17.527l-10.963.057a2.083,2.083,0,0,0-2.066,2.07l-.054,10.434a2.032,2.032,0,0,0,2.045,2.049l2.33-.012-.047,8.991L28.965,46.85l.165-31.681L34,15.144A2.082,2.082,0,0,0,35.84,14.01a2.058,2.058,0,0,0-.157-2.144L27.716.84A2.03,2.03,0,0,0,26.057,0,2.078,2.078,0,0,0,24.39.858L16.308,11.966a2.067,2.067,0,0,0-.18,2.146,2.03,2.03,0,0,0,1.826,1.115l4.872-.025-.2,38.077L10.6,47.671l.055-10.59A7.657,7.657,0,0,0,15.074,30.2a7.458,7.458,0,0,0-7.5-7.512A7.648,7.648,0,0,0,0,30.28a7.465,7.465,0,0,0,4.35,6.834l-.066,12.6a3.118,3.118,0,0,0,1.8,2.849l16.51,7.7-.064,12.365c-4.675,1.393-6.726,4.3-6.757,10.171-.036,6.864,5.406,9.819,9.8,9.8s9.871-3.045,9.907-9.9c.031-5.875-1.99-8.757-6.651-10.1l.1-18.761L45.52,45.957a3.2,3.2,0,0,0,1.828-2.868l.057-11,2.33-.012A2.083,2.083,0,0,0,51.8,30.01l.054-10.434A2.032,2.032,0,0,0,49.81,17.527Z" transform="translate(28.889 65.555) rotate(-45)"/>
        <rect id="Rectangle_1399" data-name="Rectangle 1399" class="cls-5" width="160" height="160"/>
      </g>
    </g>
    <g id="Level_Bed_Button" data-name="Level Bed Button" transform="translate(-3892 -2054)">
      <rect id="Rectangle-3" data-name="Rectangle" class="cls-6" width="216" height="192" rx="8" transform="translate(8)"/>
      <text id="LEVEL_BED" data-name="LEVEL BED" class="cls-7" transform="translate(116 162)"><tspan x="-61.981" y="0">LEVEL BED</tspan></text>
      <g id="Level_Bed_Icon" data-name="Level Bed Icon" transform="translate(61 43.591)">
        <rect id="Rectangle_1400" data-name="Rectangle 1400" width="109.052" height="4.544" rx="2.272" transform="translate(0.494 28.778)"/>
        <path id="right-arrow" class="cls-8" d="M13.978.31A1.041,1.041,0,1,0,12.5,1.775l7.5,7.5H1.036A1.031,1.031,0,0,0,0,10.312a1.042,1.042,0,0,0,1.036,1.05H20l-7.5,7.486a1.062,1.062,0,0,0,0,1.479,1.036,1.036,0,0,0,1.479,0l9.276-9.276a1.019,1.019,0,0,0,0-1.464Z" transform="translate(0 60.409) rotate(-90)"/>
        <path id="right-arrow-2" data-name="right-arrow" class="cls-8" d="M13.978.31A1.041,1.041,0,1,0,12.5,1.775l7.5,7.5H1.036A1.031,1.031,0,0,0,0,10.312a1.042,1.042,0,0,0,1.036,1.05H20l-7.5,7.486a1.062,1.062,0,0,0,0,1.479,1.036,1.036,0,0,0,1.479,0l9.276-9.276a1.019,1.019,0,0,0,0-1.464Z" transform="translate(110 0) rotate(90)"/>
        <path id="right-arrow-3" data-name="right-arrow" class="cls-8" d="M13.978.31A1.041,1.041,0,1,0,12.5,1.775l7.5,7.5H1.036A1.031,1.031,0,0,0,0,10.312a1.042,1.042,0,0,0,1.036,1.05H20l-7.5,7.486a1.062,1.062,0,0,0,0,1.479,1.036,1.036,0,0,0,1.479,0l9.276-9.276a1.019,1.019,0,0,0,0-1.464Z" transform="translate(89.362 60.409) rotate(-90)"/>
        <path id="right-arrow-4" data-name="right-arrow" class="cls-8" d="M13.978.31A1.041,1.041,0,1,0,12.5,1.775l7.5,7.5H1.036A1.031,1.031,0,0,0,0,10.312a1.042,1.042,0,0,0,1.036,1.05H20l-7.5,7.486a1.062,1.062,0,0,0,0,1.479,1.036,1.036,0,0,0,1.479,0l9.276-9.276a1.019,1.019,0,0,0,0-1.464Z" transform="translate(20.638 0) rotate(90)"/>
      </g>
    </g>
    <g id="Filament_Button" data-name="Filament Button" transform="translate(-3664 -2054)">
      <rect id="Rectangle-4" data-name="Rectangle" class="cls-6" width="216" height="192" rx="8" transform="translate(4)"/>
      <text id="FILAMENT" class="cls-7" transform="translate(112 162)"><tspan x="-59.888" y="0">FILAMENT</tspan></text>
      <g id="spool-reel-filament-icon" transform="translate(69 48)">
        <ellipse id="Ellipse_267" data-name="Ellipse 267" class="cls-9" cx="30.726" cy="30.952" rx="30.726" ry="30.952" transform="translate(24.581 0)"/>
        <ellipse id="Ellipse_268" data-name="Ellipse 268" class="cls-10" cx="3.073" cy="3.095" rx="3.073" ry="3.095" transform="translate(52.234 27.857)"/>
        <path id="Path_1292" data-name="Path 1292" class="cls-10" d="M60.073,40.508h0A3.029,3.029,0,0,1,57,37.413V27.1A3.093,3.093,0,0,1,60.073,24h0a3.093,3.093,0,0,1,3.073,3.1V37.413A3.029,3.029,0,0,1,60.073,40.508Z" transform="translate(-4.766 -17.81)"/>
        <path id="Path_1293" data-name="Path 1293" class="cls-10" d="M77.5,65.587h0a2.955,2.955,0,0,1-4.3,0l-7.272-7.325a3.007,3.007,0,0,1,0-4.333h0a2.955,2.955,0,0,1,4.3,0L77.5,61.254A3.007,3.007,0,0,1,77.5,65.587Z" transform="translate(-4.572 -16.889)"/>
        <path id="Path_1294" data-name="Path 1294" class="cls-10" d="M54.5,53.929h0a3.007,3.007,0,0,1,0,4.333l-7.272,7.325a2.955,2.955,0,0,1-4.3,0h0a3.007,3.007,0,0,1,0-4.333l7.272-7.325A2.955,2.955,0,0,1,54.5,53.929Z" transform="translate(-5.129 -16.889)"/>
        <g id="Group_1449" data-name="Group 1449" transform="translate(0 4.127)">
          <path id="Path_1295" data-name="Path 1295" class="cls-10" d="M35.7,22H24.436a4.124,4.124,0,0,0-4.1,4.127V46.762a4.124,4.124,0,0,1-4.1,4.127H6" transform="translate(-6 -22)"/>
        </g>
      </g>
    </g>
    <g id="Manual_Controls_Button" data-name="Manual Controls Button" transform="translate(-3664 -1840)">
      <rect id="Rectangle-5" data-name="Rectangle" class="cls-6" width="216" height="184" rx="8" transform="translate(4 -14)"/>
      <text id="MANUAL" class="cls-7" transform="translate(112 140)"><tspan x="-51.343" y="0">MANUAL</tspan></text>
      <path id="Manual_Icon" data-name="Manual Icon" class="cls-11" d="M14.872,49.246,0,34.375,14.871,19.5V30.955H30.955V14.872H19.5L34.375,0,49.246,14.871H37.795V30.955H53.878V19.5L68.75,34.375,53.879,49.246V37.795H37.795V53.878H49.246L34.375,68.75,19.5,53.879H30.955V37.795H14.872Z" transform="translate(77.5 31.25)"/>
    </g>
    <g id="Preheat_Button" data-name="Preheat Button" transform="translate(-3884 -1840)">
      <rect id="Rectangle-6" data-name="Rectangle" class="cls-6" width="216" height="184" rx="8" transform="translate(0 -14)"/>
      <text id="PRE_HEAT" data-name="PRE HEAT" class="cls-12" transform="translate(108 140)"><tspan x="-52.525" y="0">PRE HEAT</tspan></text>
      <g id="Preheat_" data-name="Preheat " transform="translate(50 18)">
        <g id="Group_1450" data-name="Group 1450" transform="translate(43.393 7.5)">
          <path id="XMLID_24_" class="cls-13" d="M29.592,61.094a14.9,14.9,0,0,1-15.2,15.145C7.088,75.866.863,69.535.5,61.839A15.124,15.124,0,0,1,3.976,51.287V13.178A12.933,12.933,0,0,1,9.482,2.254a9.336,9.336,0,0,1,10.534-.372A13.608,13.608,0,0,1,26.24,13.426V51.287A15.357,15.357,0,0,1,29.592,61.094Z" transform="translate(-0.478 -0.435)"/>
          <path id="XMLID_23_" class="cls-14" d="M19.663,22.738V49.179a8.829,8.829,0,0,1,4.309,7.7,9.772,9.772,0,0,1-12.09,9.683A9.793,9.793,0,0,1,4.7,56.875c0-3.352,1.676-5.71,4.19-7.572L8.77,22.614a5.189,5.189,0,0,1,3.711-5.09,6.893,6.893,0,0,1,3.83.372A5.176,5.176,0,0,1,19.663,22.738Z" transform="translate(0.354 3.66)"/>
          <line id="XMLID_21_" class="cls-15" x2="5.361" transform="translate(28.282 25.035)"/>
          <line id="XMLID_20_" class="cls-15" x2="5.361" transform="translate(28.282 19.633)"/>
          <line id="XMLID_19_" class="cls-15" x2="9.924" transform="translate(27.925 14.232)"/>
          <line id="XMLID_18_" class="cls-15" x2="5.361" transform="translate(28.282 41.106)"/>
          <line id="XMLID_17_" class="cls-15" x2="5.361" transform="translate(28.282 35.705)"/>
          <line id="XMLID_15_" class="cls-15" x2="9.924" transform="translate(27.925 30.37)"/>
        </g>
        <rect id="Rectangle-7" data-name="Rectangle" class="cls-5" width="115.714" height="90"/>
      </g>
    </g>
    <g id="Wifi_Icon" data-name="Wifi Icon" transform="translate(-8719 6449)">
      <g id="Wifi" transform="translate(5141.667 -8569.667)">
        <path id="Path_1296" data-name="Path 1296" class="cls-4" d="M4.2,0A4.215,4.215,0,1,1,0,4.215,4.206,4.206,0,0,1,4.2,0Z" transform="translate(16 27.313)"/>
        <path id="Path_1297" data-name="Path 1297" class="cls-4" d="M16.05,87.992a11.351,11.351,0,0,0-8.912,4.429,2.155,2.155,0,0,0,.238,2.908,1.864,1.864,0,0,0,1.247.484,1.889,1.889,0,0,0,1.486-.736,7.446,7.446,0,0,1,11.881,0,1.888,1.888,0,0,0,1.486.736,1.857,1.857,0,0,0,1.247-.484,2.155,2.155,0,0,0,.238-2.908A11.352,11.352,0,0,0,16.05,87.992Z" transform="translate(3.983 -69.531)"/>
        <path id="Path_1298" data-name="Path 1298" class="cls-4" d="M15.308,0A18.925,18.925,0,0,0,.455,7.383a2.155,2.155,0,0,0,.238,2.908,1.864,1.864,0,0,0,1.247.485,1.889,1.889,0,0,0,1.486-.736,15.138,15.138,0,0,1,11.881-5.91A15.143,15.143,0,0,1,27.19,10.04a1.888,1.888,0,0,0,1.486.736,1.858,1.858,0,0,0,1.247-.485,2.155,2.155,0,0,0,.238-2.908A18.93,18.93,0,0,0,15.308,0Z" transform="matrix(1, -0.017, 0.017, 1, 5.242, 9.384)"/>
        <path id="Path_1299" data-name="Path 1299" class="cls-16" d="M42.043,87.947A26.492,26.492,0,0,0,21.249,77.608,26.5,26.5,0,0,0,.454,87.947a2.155,2.155,0,0,0,.238,2.908,1.861,1.861,0,0,0,1.246.485A1.893,1.893,0,0,0,3.426,90.6a22.712,22.712,0,0,1,17.823-8.866A22.714,22.714,0,0,1,39.072,90.6a1.893,1.893,0,0,0,1.488.736,1.857,1.857,0,0,0,1.247-.485A2.155,2.155,0,0,0,42.043,87.947Z" transform="translate(0 -77.608)"/>
      </g>
      <rect id="Rectangle_1402" data-name="Rectangle 1402" class="cls-5" width="64" height="64" transform="translate(5131 -8583)"/>
    </g>
  </g>
</svg>
