<?xml version="1.0" encoding="utf-8"?>
<!-- Generator: Adobe Illustrator 21.0.2, SVG Export Plug-In . SVG Version: 6.00 Build 0)  -->
<svg version="1.1" id="Layer_1" xmlns="http://www.w3.org/2000/svg" xmlns:xlink="http://www.w3.org/1999/xlink" x="0px" y="0px"
	 viewBox="0 0 800 480" style="enable-background:new 0 0 800 480;" xml:space="preserve">
<style type="text/css">
	.st0{fill:#EEEEEE;}
	.st1{font-family:'Roboto-Regular';}
	.st2{font-size:19px;}
	.st3{stroke:#95989A;}
	.st4{font-size:23px;}
	.st5{fill:none;stroke:#95989A;}
	.st6{font-size:25px;}
	.st7{font-size:24px;}
	.st8{fill:none;stroke:#000000;stroke-width:2;}
	.st9{fill:none;stroke:#000000;stroke-width:1.5;}
	.st10{font-size:17px;}
	.st11{fill:#222222;}
	.st12{fill:#FFFFFF;}
	.st13{fill:#808080;}
	.st14{font-family:'Roboto-Light';}
</style>
<path id="XY_Container" class="st0" d="M101.4,96h349.4c7.3,0,13.2,5.9,13.2,13.2L504,374c0,7.3-5.9,13.2-13.2,13.2H61.7
	c-7.3,0-13.2-5.9-13.2-13.2l39.7-264.7C88.1,101.9,94.1,96,101.4,96z"/>
<g id="X_Entry">
	<text transform="matrix(1 0 0 1 118.75 439)" class="st1 st2">150 mm</text>
	<path id="Path_2481" class="st3" d="M90,448h110"/>
	<path id="Path_2478" class="st3" d="M90,416h110"/>
	<text transform="matrix(1 0 0 1 97.29 438)" class="st1 st4">X</text>
</g>
<g id="Z_Entry">
	<text transform="matrix(1 0 0 1 636.875 439)" class="st1 st2">175 mm</text>
	<line id="Line_151" class="st5" x1="613.8" y1="448" x2="720" y2="448"/>
	<path id="Path_2480" class="st3" d="M610,416h110"/>
	<text transform="matrix(1 0 0 1 615.1421 440)" class="st1 st6">Z</text>
</g>
<g id="Y_Entry">
	<text transform="matrix(1 0 0 1 337.5 439)" class="st1 st2">200 mm</text>
	<path id="Path_2479" class="st3" d="M310,416h110"/>
	<path id="Path_2482" class="st3" d="M312,448h110"/>
	<text transform="matrix(1 0 0 1 316.043 439)" class="st1 st7">Y</text>
</g>
<path id="Z_Container" class="st0" d="M569.8,96H744c4.4,0,8,3.6,8,8v274c0,4.4-3.6,8-8,8H569.8c-4.4,0-8-3.6-8-8V104
	C561.8,99.6,565.4,96,569.8,96z"/>
<g id="XY_Home" transform="translate(-3315.572 -312)">
	<path id="Rectangle_2358-3" class="st0" d="M3552,508h74c4.4,0,8,3.6,8,8v74c0,4.4-3.6,8-8,8h-74c-4.4,0-8-3.6-8-8v-74
		C3544,511.6,3547.6,508,3552,508z"/>
	<path id="Path_2425-3" class="st8" d="M3621.8,547.6l-7.7-5.1l-9.1-6.8l-17-12.8l-33.3,24.7c-0.8,0.6-0.9,1.7-0.3,2.5
		c0.6,0.7,1.7,0.9,2.4,0.3l31.2-23.1l31.6,23.1c0.8,0.6,1.9,0.4,2.5-0.3C3622.7,549.3,3622.5,548.2,3621.8,547.6L3621.8,547.6z"/>
	<path id="Path_2424-3" class="st8" d="M3562.3,551.5v31.1h51.6v-31.1l-25.8-19.3L3562.3,551.5z"/>
</g>
<g id="Y_x2B__Icon" transform="translate(-3231.306 -392) rotate(90)">
	
		<rect id="Rectangle_2359" x="508.7" y="-3544" transform="matrix(2.535182e-06 1 -1 2.535182e-06 -2956.0015 -4052.7251)" class="st0" width="79.3" height="79.3"/>
	<path id="Path_2426-2" class="st8" d="M509.2-3501.8l35.6,34.5c0.8,0.8,1.8,1.2,3,1.2c1.1,0,2.2-0.4,3-1.2c0.8-0.7,1.3-1.8,1.2-2.8
		v-18.1c0.1,0,0.1-32.1,0-32.2v-18.1c0-1.1-0.5-2.1-1.3-2.8c-0.8-0.8-1.8-1.2-3-1.2c-1.1,0-2.2,0.4-3,1.2l-35.6,34
		c-1.6,1.4-1.7,3.9-0.2,5.4C509.1-3502,509.2-3501.9,509.2-3501.8z"/>
	<path id="Path_2469-2" class="st9" d="M559.6-3466v-77.5c0-0.2,0.1-0.3,0.3-0.3c0,0,0,0,0,0h4.1c0.2,0,0.3,0.1,0.3,0.3c0,0,0,0,0,0
		v77.5c0,0.2-0.1,0.3-0.3,0.3c0,0,0,0,0,0h-4.1C559.7-3465.7,559.6-3465.8,559.6-3466C559.6-3466,559.6-3466,559.6-3466z"/>
</g>
<g id="X-_Icon" transform="translate(-3425.572 -306.266)">
	<rect id="Rectangle_2362" x="3544.7" y="508" class="st0" width="78.5" height="78.5"/>
	<path id="Path_2427-2" class="st8" d="M3545.2,550.2l35.3,34.5c0.8,0.8,1.8,1.2,2.9,1.2c1.1,0,2.2-0.4,2.9-1.2
		c0.8-0.7,1.2-1.8,1.2-2.8v-18.1c0.1,0,0.1-32.1,0-32.2v-18.1c0-1.1-0.4-2.1-1.2-2.8c-0.8-0.8-1.8-1.2-2.9-1.2
		c-1.1,0-2.2,0.4-2.9,1.2l-35.3,34c-1.6,1.4-1.7,3.9-0.2,5.5C3545.1,550,3545.2,550.1,3545.2,550.2z"/>
	<path id="Path_2471-2" class="st9" d="M3595.1,586v-77.5c0-0.2,0.1-0.3,0.3-0.3c0,0,0,0,0,0h4.1c0.2,0,0.3,0.1,0.3,0.3V586
		c0,0.2-0.1,0.3-0.3,0.3c0,0,0,0,0,0h-4.1C3595.2,586.3,3595.1,586.2,3595.1,586C3595.1,586,3595.1,586,3595.1,586z"/>
</g>
<g id="Y-_Icon" transform="translate(-3309.838 -142) rotate(-90)">
	
		<rect id="Rectangle_2364" x="-507.3" y="3544" transform="matrix(-2.535182e-06 -1 1 -2.535182e-06 -4051.2671 3116.009)" class="st0" width="79.3" height="79.3"/>
	<path id="Path_2428-2" class="st8" d="M-506.8,3586.2l35.6,34.5c0.8,0.8,1.8,1.2,2.9,1.2c1.1,0,2.2-0.4,3-1.2
		c0.8-0.7,1.3-1.8,1.2-2.8v-18.1c0.1,0,0.1-32.1,0-32.2v-18.1c0-1.1-0.5-2.1-1.3-2.8c-0.8-0.8-1.8-1.2-3-1.2c-1.1,0-2.2,0.4-3,1.2
		l-35.6,34c-1.6,1.4-1.7,3.9-0.2,5.4C-506.9,3586-506.8,3586.1-506.8,3586.2z"/>
	<path id="Path_2470-2" class="st9" d="M-456.4,3622v-77.5c0-0.2,0.1-0.3,0.3-0.3c0,0,0,0,0,0h4.1c0.2,0,0.3,0.1,0.3,0.3
		c0,0,0,0,0,0v77.5c0,0.2-0.1,0.3-0.3,0.3c0,0,0,0,0,0h-4.1C-456.3,3622.3-456.4,3622.2-456.4,3622
		C-456.4,3622-456.4,3622-456.4,3622z"/>
</g>
<g id="X_x2B__Icon" transform="translate(-3115.572 -227.734) rotate(180)">
	<rect id="Rectangle_2366" x="-3543.3" y="-508" class="st0" width="79.3" height="79.3"/>
	<path id="Path_2429-2" class="st8" d="M-3542.8-465.8l35.6,34.5c0.8,0.8,1.8,1.2,3,1.2c1.1,0,2.2-0.4,3-1.2
		c0.8-0.7,1.3-1.8,1.2-2.8v-18.1c0.1,0,0.1-32.1,0-32.2v-18.1c0-1.1-0.5-2.1-1.3-2.8c-0.8-0.8-1.8-1.2-3-1.2c-1.1,0-2.2,0.4-3,1.2
		l-35.6,34c-1.6,1.4-1.7,3.9-0.2,5.4C-3542.9-466-3542.8-465.9-3542.8-465.8z"/>
	<path id="Path_2468-2" class="st9" d="M-3492.4-430v-77.5c0-0.2,0.1-0.3,0.3-0.3c0,0,0,0,0,0h4.1c0.2,0,0.3,0.1,0.3,0.3
		c0,0,0,0,0,0v77.5c0,0.2-0.1,0.3-0.3,0.3c0,0,0,0,0,0h-4.1C-3492.3-429.7-3492.4-429.8-3492.4-430
		C-3492.4-430-3492.4-430-3492.4-430z"/>
</g>
<g id="Z_x2B__Icon" transform="translate(-2847.912 -392) rotate(90)">
	
		<rect id="Rectangle_2369" x="508.7" y="-3544" transform="matrix(2.535182e-06 1 -1 2.535182e-06 -2956.0015 -4052.7251)" class="st0" width="79.3" height="79.3"/>
	<path id="Path_2472-2" class="st9" d="M559.6-3466v-77.5c0-0.2,0.1-0.3,0.3-0.3c0,0,0,0,0,0h4.1c0.2,0,0.3,0.1,0.3,0.3c0,0,0,0,0,0
		v77.5c0,0.2-0.1,0.3-0.3,0.3c0,0,0,0,0,0h-4.1C559.7-3465.7,559.6-3465.8,559.6-3466C559.6-3466,559.6-3466,559.6-3466z"/>
	<path id="Path_2432-2" class="st8" d="M509.2-3501.8l35.6,34.5c0.8,0.8,1.8,1.2,3,1.2c1.1,0,2.2-0.4,3-1.2c0.8-0.7,1.3-1.8,1.2-2.8
		v-18.1c0.1,0,0.1-32.1,0-32.2v-18.1c0-1.1-0.5-2.1-1.3-2.8c-0.8-0.8-1.8-1.2-3-1.2c-1.1,0-2.2,0.4-3,1.2l-35.6,34
		c-1.6,1.4-1.7,3.9-0.2,5.4C509.1-3502,509.2-3501.9,509.2-3501.8z"/>
</g>
<g id="Z_Home" transform="translate(-2932.178 -312)">
	<path id="Rectangle_2358-4" class="st0" d="M3552,508h74c4.4,0,8,3.6,8,8v74c0,4.4-3.6,8-8,8h-74c-4.4,0-8-3.6-8-8v-74
		C3544,511.6,3547.6,508,3552,508z"/>
	<path id="Path_2424-4" class="st8" d="M3562.3,551.5v31.1h51.6v-31.1l-25.8-19.3L3562.3,551.5z"/>
	<path id="Path_2425-4" class="st8" d="M3621.8,547.6l-7.7-5.1l-9.1-6.8l-17-12.8l-33.3,24.7c-0.8,0.6-0.9,1.7-0.3,2.5
		c0.6,0.7,1.7,0.9,2.4,0.3l31.2-23.1l31.6,23.1c0.8,0.6,1.9,0.4,2.5-0.3C3622.7,549.3,3622.5,548.2,3621.8,547.6L3621.8,547.6z"/>
</g>
<g id="Z-_Icon" transform="translate(-2926.444 -142) rotate(-90)">
	
		<rect id="Rectangle_2371" x="-507.3" y="3544" transform="matrix(-2.535182e-06 -1 1 -2.535182e-06 -4051.2671 3116.009)" class="st0" width="79.3" height="79.3"/>
	<g id="Path_2433-2">
		
			<image style="overflow:visible;opacity:0.25;" width="140" height="107" xlink:href="7626BABC.png"  transform="matrix(0 1 -1 0 -435 3513.4441)">
		</image>
		<g>
			<path class="st8" d="M-506.8,3586.2l35.6,34.5c0.8,0.8,1.8,1.2,2.9,1.2c1.1,0,2.2-0.4,3-1.2c0.8-0.7,1.3-1.8,1.2-2.8v-18.1
				c0.1,0,0.1-32.1,0-32.2v-18.1c0-1.1-0.5-2.1-1.3-2.8c-0.8-0.8-1.8-1.2-3-1.2c-1.1,0-2.2,0.4-3,1.2l-35.6,34
				c-1.6,1.4-1.7,3.9-0.2,5.4C-506.9,3586-506.8,3586.1-506.8,3586.2z"/>
		</g>
	</g>
	<g id="Path_2473-2">
		
			<image style="overflow:visible;opacity:0.25;" width="116" height="44" xlink:href="7626BABD.png"  transform="matrix(0 1 -1 0 -435 3525.4441)">
		</image>
		<g>
			<path class="st9" d="M-456.4,3622v-77.5c0-0.2,0.1-0.3,0.3-0.3c0,0,0,0,0,0h4.1c0.2,0,0.3,0.1,0.3,0.3c0,0,0,0,0,0v77.5
				c0,0.2-0.1,0.3-0.3,0.3c0,0,0,0,0,0h-4.1C-456.3,3622.3-456.4,3622.2-456.4,3622C-456.4,3622-456.4,3622-456.4,3622z"/>
		</g>
	</g>
</g>
<g id="Z-_Icon_1_" transform="translate(-2926.444 -142) rotate(-90)">
	
		<rect id="Rectangle_2371_1_" x="-338" y="3542.9" transform="matrix(-2.535182e-06 -1 1 -2.535182e-06 -3880.8809 3284.1553)" class="st0" width="79.3" height="79.3"/>
	<g id="Path_2433-2_1_">
		
			<image style="overflow:visible;opacity:0.25;" width="140" height="107" xlink:href="7626BABB.png"  transform="matrix(0 1 -1 0 -230 3512.4441)">
		</image>
		<g>
			<path class="st8" d="M-259.2,3580l-35.6-34.5c-0.8-0.8-1.8-1.2-2.9-1.2c-1.1,0-2.2,0.4-3,1.2c-0.8,0.7-1.3,1.8-1.2,2.8v18.1
				c-0.1,0-0.1,32.1,0,32.2v18.1c0,1.1,0.5,2.1,1.3,2.8c0.8,0.8,1.8,1.2,3,1.2c1.1,0,2.2-0.4,3-1.2l35.6-34c1.6-1.4,1.7-3.9,0.2-5.4
				C-259.1,3580.2-259.2,3580.1-259.2,3580z"/>
		</g>
	</g>
	<g id="Path_2473-2_1_">
		
			<image style="overflow:visible;opacity:0.25;" width="117" height="44" xlink:href="7626BAC4.png"  transform="matrix(0 1 -1 0 -293 3524.4441)">
		</image>
		<g>
			<path class="st9" d="M-309.6,3544.1v77.5c0,0.2-0.1,0.3-0.3,0.3c0,0,0,0,0,0h-4.1c-0.2,0-0.3-0.1-0.3-0.3c0,0,0,0,0,0v-77.5
				c0-0.2,0.1-0.3,0.3-0.3c0,0,0,0,0,0h4.1C-309.7,3543.8-309.6,3544-309.6,3544.1C-309.6,3544.1-309.6,3544.1-309.6,3544.1z"/>
		</g>
	</g>
</g>
<text transform="matrix(1 0 0 1 647.2839 345.75)" class="st1 st10">Z -</text>
<text transform="matrix(1 0 0 1 646.811 150.75)" class="st1 st10">Z +</text>
<text transform="matrix(1 0 0 1 263.428 342)" class="st1 st10">Y -</text>
<text transform="matrix(1 0 0 1 263.3721 150.75)" class="st1 st10">Y +</text>
<text transform="matrix(1 0 0 1 394.8999 247)" class="st1 st10">X +</text>
<text transform="matrix(1 0 0 1 133.176 247)" class="st1 st10">X -</text>
<rect id="Top_Bar" class="st11" width="800" height="64"/>
<text transform="matrix(1 0 0 1 30 41)" class="st12 st1 st7">Manual Controls</text>
<g id="Cancel_buton" transform="translate(-2894 -508)">
	<rect id="Rectangle_2373" x="3542" y="508" class="st13" width="152" height="64"/>
	<text transform="matrix(1 0 0 1 3591.083 549)" class="st12 st14 st6">Back</text>
</g>
</svg>
