<svg xmlns="http://www.w3.org/2000/svg" viewBox="3366 4287 96 96"><defs><style>.a{fill:none;}.b{fill:#d9870b;}.c{fill:#fff;}</style></defs><g transform="translate(3094 4179)"><g transform="translate(-4811 8771)"><rect class="a" width="96" height="96" transform="translate(5083 -8663)"/><circle class="b" cx="32" cy="32" r="32" transform="translate(5099 -8647)"/><g transform="translate(5111.45 -8635.799)"><path class="c" d="M37.826,48.967,24.3,25.545a5.754,5.754,0,0,0-9.995,0L.778,48.967a5.781,5.781,0,0,0,5,8.676H32.781A5.81,5.81,0,0,0,37.826,48.967ZM19.3,52.447a2.153,2.153,0,1,1,0-4.306,2.154,2.154,0,0,1,0,4.306Zm1.962-13.92c-.1,1.668-.2,3.329-.294,5-.048.54-.048,1.033-.048,1.565A1.622,1.622,0,0,1,19.3,46.655a1.586,1.586,0,0,1-1.621-1.517c-.143-2.6-.294-5.148-.437-7.746-.048-.683-.1-1.374-.151-2.058a2.339,2.339,0,0,1,1.668-2.352,2.16,2.16,0,0,1,2.5,1.224,2.567,2.567,0,0,1,.2,1.081C21.411,36.374,21.308,37.455,21.261,38.527Z" transform="translate(0 -22.643)"/></g></g></g></svg>