<svg xmlns="http://www.w3.org/2000/svg" viewBox="10341 2939 96 96"><defs><style>.a{fill:none;}.b{fill:#e02a2a;}.c{fill:#fff;}</style></defs><g transform="translate(5258 11602)"><rect class="a" width="96" height="96" transform="translate(5083 -8663)"/><circle class="b" cx="32" cy="32" r="32" transform="translate(5099 -8647)"/><g transform="translate(5110.45 -8643.453)"><path class="c" d="M20.447,69.419c-1.788,0-3.273-1.827-3.273-4.024s1.486-4.024,3.273-4.024,3.273,1.827,3.2,4.128C23.733,67.592,22.162,69.419,20.447,69.419ZM23.431,43.4c-.145,3.119-.3,6.222-.447,9.341-.072,1.01-.072,1.931-.072,2.925-.072,1.648-1.123,2.925-2.464,2.925a2.688,2.688,0,0,1-2.464-2.836c-.217-4.856-.447-9.623-.664-14.479-.072-1.277-.145-2.569-.229-3.846,0-2.109.966-3.846,2.536-4.4,1.57-.46,3.128.46,3.8,2.287a5.778,5.778,0,0,1,.3,2.02C23.66,39.377,23.5,41.4,23.431,43.4Z" transform="translate(0 -22.643)"/></g></g></svg>