<?xml version="1.0" encoding="utf-8"?>
<!-- Generator: Adobe Illustrator 21.0.2, SVG Export Plug-In . SVG Version: 6.00 Build 0)  -->
<svg version="1.1" id="Layer_1" xmlns="http://www.w3.org/2000/svg" xmlns:xlink="http://www.w3.org/1999/xlink" x="0px" y="0px"
	 viewBox="0 0 800 480" style="enable-background:new 0 0 800 480;" xml:space="preserve">
<style type="text/css">
	.st0{fill:#2E2E2E;}
	.st1{fill:#FFFFFF;}
	.st2{font-family:'Roboto-Regular';}
	.st3{font-size:24px;}
	.st4{font-family:'Roboto-Light';}
	.st5{font-size:19px;}
	.st6{fill:#231F20;}
	.st7{fill:none;stroke:#000000;stroke-width:0.75;}
	.st8{fill:#808080;}
	.st9{fill:none;stroke:#95989A;stroke-width:0.5;}
</style>
<g id="About">
	<rect id="Top_Bar" class="st0" width="800" height="64"/>
	<text transform="matrix(1 0 0 1 30 41)" class="st1 st2 st3">About</text>
	<text transform="matrix(1 0 0 1 104 203)" class="st4 st5">Machine type</text>
	<text transform="matrix(1 0 0 1 104 259)" class="st4 st5">Serial No.</text>
	<text transform="matrix(1 0 0 1 104 315)" class="st4 st5">Firmware version</text>
	<text transform="matrix(1 0 0 1 104 371)" class="st4 st5">Build volume</text>
	<text transform="matrix(1 0 0 1 104 427)" class="st4 st5">Usage counter</text>
	<text transform="matrix(1 0 0 1 642.106 259)" class="st2 st5">ABCD12345</text>
	<text transform="matrix(1 0 0 1 616.429 203)" class="st2 st5">Ethereal Junior</text>
	<text transform="matrix(1 0 0 1 680.417 315)" class="st2 st5">v 2.1.05</text>
	<text transform="matrix(1 0 0 1 569.073 371)" class="st2 st5">200 x 150 x 175 mm</text>
	<text transform="matrix(1 0 0 1 649.62 427)" class="st2 st5">0000 hours</text>
	<g id="Serial_Icon" transform="translate(278 -284)">
		<rect id="Rectangle_1463" x="-238" y="508" class="st1" width="56" height="56"/>
		<g id="barcode" transform="translate(11.2 15.4)">
			<rect id="Rectangle_1472" x="-238" y="508" class="st1" width="33.6" height="27.4"/>
			<rect id="Rectangle_1473" x="-238" y="508" width="1.5" height="23.2"/>
			<rect id="Rectangle_1474" x="-235.8" y="508" width="0.7" height="23.2"/>
			<rect id="Rectangle_1475" x="-232.2" y="508" width="0.7" height="23.2"/>
			<rect id="Rectangle_1476" x="-230" y="508" width="0.7" height="23.2"/>
			<rect id="Rectangle_1477" x="-228.5" y="508" width="0.7" height="23.2"/>
			<rect id="Rectangle_1478" x="-224.9" y="508" width="1.5" height="23.2"/>
			<rect id="Rectangle_1479" x="-221.9" y="508" width="0.7" height="23.2"/>
			<rect id="Rectangle_1480" x="-220.5" y="508" width="0.7" height="23.2"/>
			<rect id="Rectangle_1481" x="-216.8" y="508" width="1.5" height="23.2"/>
			<rect id="Rectangle_1482" x="-213.9" y="508" width="1.5" height="23.2"/>
			<rect id="Rectangle_1483" x="-210.2" y="508" width="2.2" height="23.2"/>
			<rect id="Rectangle_1484" x="-207.3" y="508" width="0.7" height="23.2"/>
			<rect id="Rectangle_1485" x="-205.9" y="508" width="1.5" height="23.2"/>
		</g>
	</g>
	<g id="Build_Icon" transform="translate(278 -172)">
		<rect id="Rectangle_1469" x="-238" y="508" class="st1" width="56" height="56"/>
		<g id="cube_2_" transform="translate(9.8 11.2)">
			<g id="Group_1522">
				<path id="Path_1412" d="M-211.5,525l-7.4-4.4c-0.3-0.2-0.6-0.2-0.9,0l-7.5,4.2c-0.3,0.2-0.5,0.5-0.5,0.8l-0.1,8.7
					c0,0.3,0.2,0.6,0.4,0.8l7.4,4.4c0.1,0.1,0.3,0.1,0.5,0.1c0.2,0,0.3,0,0.4-0.1l7.5-4.2c0.3-0.2,0.5-0.5,0.5-0.8l0.1-8.7
					C-211.1,525.5-211.2,525.2-211.5,525z M-220.1,538.2l-7-4l0.1-7.6l7,4.1L-220.1,538.2z M-219.5,529.4l-6.6-3.8l6.7-4l7.1,4.2
					C-212.2,525.8-216.3,527.6-219.5,529.4L-219.5,529.4z M-212.1,534.4l-7.1,3.8l0.2-7.6l7-3.8L-212.1,534.4z"/>
				<path id="Path_1413" d="M-208.3,535.7c-0.4-0.3-1-0.1-1.2,0.3c-0.3,0.4-0.1,1,0.3,1.2c0.1,0.1,0.3,0.1,0.5,0.1
					c0.3,0,0.6-0.2,0.8-0.4C-207.7,536.5-207.8,536-208.3,535.7C-208.3,535.7-208.3,535.7-208.3,535.7z"/>
				<path id="Path_1414" d="M-204.9,537.7c-0.4-0.3-1-0.1-1.2,0.3c-0.3,0.4-0.1,1,0.3,1.2c0.1,0.1,0.3,0.1,0.5,0.1
					c0.5,0,0.9-0.4,0.9-0.9C-204.5,538.2-204.7,537.9-204.9,537.7z"/>
				<path id="Path_1415" d="M-201.4,539.9c-0.4-0.3-0.9-0.3-1.3,0c-0.3,0.4-0.3,0.9,0,1.3c0.2,0.2,0.4,0.3,0.6,0.3
					c0.2,0,0.5-0.1,0.6-0.3c0.2-0.2,0.3-0.4,0.3-0.6C-201.2,540.3-201.3,540-201.4,539.9z"/>
				<path id="Path_1416" d="M-230.8,535.4c-0.4,0.2-0.6,0.8-0.3,1.2c0.2,0.3,0.5,0.5,0.8,0.5c0.2,0,0.3,0,0.4-0.1
					c0.4-0.2,0.6-0.8,0.3-1.2C-229.8,535.3-230.3,535.1-230.8,535.4L-230.8,535.4L-230.8,535.4z"/>
				<path id="Path_1417" d="M-234.2,537.3c-0.4,0.2-0.6,0.8-0.3,1.2c0.2,0.3,0.5,0.5,0.8,0.5c0.2,0,0.3,0,0.4-0.1
					c0.4-0.2,0.6-0.8,0.3-1.2C-233.2,537.2-233.7,537-234.2,537.3z"/>
				<path id="Path_1418" d="M-237.1,539c-0.5,0-0.9,0.4-0.9,0.9c0,0.5,0.4,0.9,0.9,0.9c0.2,0,0.5-0.1,0.6-0.3c0.4-0.3,0.4-0.9,0-1.3
					C-236.6,539.1-236.9,539-237.1,539z"/>
				<path id="Path_1419" d="M-219.4,519.2c0.5,0,0.9-0.4,0.9-0.9c0-0.5-0.4-0.9-0.9-0.9s-0.9,0.4-0.9,0.9v0
					C-220.3,518.8-219.9,519.2-219.4,519.2z"/>
				<path id="Path_1420" d="M-219.4,516L-219.4,516c0.5,0,0.9-0.4,0.9-0.9s-0.4-0.9-0.9-0.9s-0.9,0.4-0.9,0.9c0,0,0,0,0,0
					C-220.3,515.6-219.9,516-219.4,516z"/>
				<path id="Path_1421" d="M-219.4,512.9c0.5,0,0.9-0.4,0.9-0.9c0-0.5-0.4-0.9-0.9-0.9s-0.9,0.4-0.9,0.9c0,0,0,0,0,0
					C-220.3,512.5-219.9,512.9-219.4,512.9z"/>
				<path id="Path_1422" d="M-219.4,509.8c0.5,0,0.9-0.4,0.9-0.9c0-0.5-0.4-0.9-0.9-0.9c-0.5,0-0.9,0.4-0.9,0.9
					c0,0.2,0.1,0.5,0.3,0.6C-219.9,509.7-219.6,509.8-219.4,509.8z"/>
			</g>
		</g>
	</g>
	<g id="Logo" transform="translate(606 -428)">
		<g id="Layer_1-2_1_">
			<path id="Path_1401" class="st6" d="M-238,540.1l3.1-3.1l17.5,17.4V548l-14.3-14.2l3.2-3.2l11.1,11v-6.4l-7.9-7.9l3.2-3.2
				l9.2,9.2v31.9L-238,540.1z"/>
			<path id="Path_1402" class="st6" d="M-174,540.1l-3.1-3.1l-17.5,17.4v-6.4l14.3-14.2l-3.2-3.2l-11.1,11v-6.4l7.9-7.9l-3.2-3.2
				l-9.2,9.2v31.9L-174,540.1z"/>
			<path id="Path_1403" class="st6" d="M-206,572l-2.3-2.3v-59.5l2.3-2.3l2.3,2.3v59.5L-206,572z"/>
			<path id="Path_1404" class="st6" d="M-212.8,515v11.9l-6-5.9L-212.8,515z"/>
			<path id="Path_1405" class="st6" d="M-199.2,515l5.9,5.9c-1.5,1.5-4.4,4.6-5.9,6.1V515z"/>
		</g>
	</g>
	<g id="Machine_Icon" transform="translate(278 -340)">
		<rect id="Rectangle_1471" x="-238" y="508" class="st1" width="56" height="56"/>
		<path id="Path_1406" class="st7" d="M-226.8,525.5h33.4v20.4h-33.4V525.5z"/>
		<path id="Path_1407" class="st7" d="M-193.9,521.8h-32.3c-0.3,0-0.6,0.3-0.6,0.6v3.2h33.4v-3.2
			C-193.4,522.1-193.6,521.8-193.9,521.8L-193.9,521.8z"/>
		<path id="Path_1408" class="st7" d="M-193.4,545.9h-33.4v4.1c0,0.3,0.3,0.6,0.6,0.6h32.3c0.3,0,0.6-0.3,0.6-0.6L-193.4,545.9
			L-193.4,545.9z"/>
		<path id="Path_1409" d="M-197.4,535.9h-25.1c-0.2,0-0.4-0.2-0.3-0.4c0-0.2,0.2-0.3,0.3-0.3h25.1c0.2,0,0.4,0.2,0.3,0.4
			C-197.1,535.8-197.2,535.9-197.4,535.9z"/>
		<path id="Rectangle_1470" d="M-211.3,526.7h2.4c0.1,0,0.3,0.1,0.3,0.3v3.1c0,0.1-0.1,0.3-0.3,0.3h-2.4c-0.1,0-0.3-0.1-0.3-0.3V527
			C-211.5,526.8-211.4,526.7-211.3,526.7z"/>
		<path id="Path_1410" d="M-210,530.8L-210,530.8l-0.4-1h0.7L-210,530.8z"/>
	</g>
	<g id="Usage_Icon" transform="translate(278 -116)">
		<rect id="Rectangle_1486" x="-238" y="508" class="st1" width="56" height="56"/>
		<g id="time-left_1_" transform="translate(15.4 15.4)">
			<g id="Layer_2_16_" transform="translate(0 0)">
				<g id="Group_1523" transform="translate(0)">
					<path id="Path_1423" d="M-222.9,531c-0.2,0.1-0.4,0.1-0.6,0.1c-0.6,0.1-0.9,0.6-0.8,1.2c0,0.3,0.2,0.5,0.4,0.6
						c0.2,0.2,0.5,0.2,0.8,0.2c0.3,0,0.5-0.1,0.8-0.2c0.5-0.1,0.9-0.7,0.7-1.2C-221.8,531.2-222.3,530.9-222.9,531L-222.9,531z"/>
					<path id="Path_1424" d="M-215.4,517.3c0.1,0.2,0.2,0.4,0.4,0.5c0.3,0.2,0.6,0.2,0.9,0.1c0.5-0.2,0.8-0.8,0.6-1.3
						c-0.1-0.2-0.2-0.5-0.3-0.7c-0.2-0.5-0.8-0.8-1.3-0.6c0,0,0,0,0,0c-0.5,0.2-0.8,0.8-0.6,1.3
						C-215.5,516.9-215.4,517.1-215.4,517.3z"/>
					<path id="Path_1425" d="M-219.6,529.6c-0.2,0.1-0.4,0.2-0.5,0.3c-0.5,0.3-0.7,0.9-0.4,1.4c0.1,0.1,0.2,0.2,0.3,0.3
						c0.3,0.2,0.7,0.2,1.1,0c0.2-0.1,0.4-0.3,0.7-0.4c0.5-0.3,0.6-0.9,0.3-1.4C-218.5,529.4-219.1,529.3-219.6,529.6
						C-219.6,529.6-219.6,529.6-219.6,529.6z"/>
					<path id="Path_1426" d="M-212.8,520.2c0-0.6-0.5-1-1.1-1c-0.6,0-1,0.5-1,1.1l0,0c0,0.2,0,0.4,0,0.6c0,0.3,0.2,0.7,0.4,0.9
						c0.2,0.1,0.4,0.2,0.6,0.2c0.6,0,1-0.4,1-1c0,0,0,0,0,0C-212.8,520.7-212.8,520.5-212.8,520.2z"/>
					<path id="Path_1427" d="M-215.5,526.9c-0.4-0.3-1.1-0.3-1.4,0.2c0,0,0,0,0,0c-0.1,0.2-0.3,0.3-0.4,0.5
						c-0.4,0.4-0.3,1.1,0.1,1.4c0,0,0,0,0.1,0.1c0.4,0.3,1,0.2,1.4-0.2c0.2-0.2,0.3-0.4,0.5-0.6C-215,527.9-215.1,527.2-215.5,526.9
						z"/>
					<path id="Path_1428" d="M-214,523.2c-0.5-0.2-1.1,0.1-1.3,0.7c0,0,0,0,0,0c-0.1,0.2-0.1,0.4-0.2,0.6c-0.2,0.4,0,0.9,0.4,1.2
						c0.5,0.3,1.1,0.2,1.4-0.2c0.1-0.1,0.1-0.1,0.1-0.2c0.1-0.2,0.2-0.5,0.3-0.7C-213.2,523.9-213.5,523.4-214,523.2z"/>
					<path id="Path_1429" d="M-227.3,531.2c-0.9-0.2-1.8-0.4-2.6-0.8l0,0c-0.2-0.1-0.4-0.2-0.6-0.3l0,0c-5.2-2.9-7-9.4-4.2-14.5
						c0.2-0.3,0.4-0.7,0.6-1c0.7-1,1.6-1.9,2.6-2.6l0,0c3.6-2.5,8.3-2.5,11.9-0.1l-0.8,1.2c-0.2,0.3-0.1,0.6,0.3,0.5l3.4-0.3
						c0.3,0,0.6-0.3,0.5-0.6c0-0.1,0-0.1,0-0.1l-0.9-3.4c-0.1-0.4-0.4-0.4-0.6-0.1l-0.8,1.2c-2.7-1.8-6-2.5-9.2-2
						c-0.3,0.1-0.6,0.1-1,0.2h0l0,0c-2.8,0.7-5.2,2.4-6.9,4.7c0,0,0,0,0,0.1c-0.1,0.1-0.1,0.2-0.2,0.2c-0.1,0.1-0.2,0.3-0.3,0.4
						c0,0,0,0,0,0c-1.4,2.2-2.1,4.8-2,7.4c0,0,0,0,0,0c0,0.3,0,0.5,0.1,0.8c0,0,0,0,0,0c0,0.3,0.1,0.5,0.1,0.8
						c0.4,2.6,1.7,5,3.5,6.8l0,0l0,0c0.5,0.5,1,1,1.6,1.4c1.5,1.1,3.2,1.8,5,2.1c0.6,0.1,1.1-0.3,1.2-0.8
						C-226.4,531.8-226.7,531.3-227.3,531.2L-227.3,531.2z"/>
					<path id="Path_1430" d="M-226,512.5c-0.5,0-0.8,0.4-0.8,0.8c0,0,0,0,0,0v8.2l7.5,3.9c0.1,0.1,0.2,0.1,0.4,0.1
						c0.3,0,0.6-0.2,0.7-0.4c0.2-0.4,0.1-0.9-0.4-1.1l-6.6-3.4v-7.2C-225.2,512.8-225.6,512.5-226,512.5z"/>
				</g>
			</g>
		</g>
	</g>
	<g id="Firmware_Icon" transform="translate(238 -488)">
		<rect id="Rectangle_2412" x="-198" y="768" class="st1" width="56" height="56"/>
		<g id="terminal" transform="translate(52.32 276.8)">
			<g id="Group_1538">
				<g id="Group_1537">
					<path id="Path_1437" d="M-208.2,508H-237c-0.6,0-1,0.4-1,1v21.4c0,0.6,0.4,1,1,1h28.8c0.6,0,1-0.4,1-1V509
						C-207.2,508.5-207.7,508-208.2,508C-208.2,508-208.2,508-208.2,508z M-208.2,530.4H-237v-15.6h28.8L-208.2,530.4L-208.2,530.4z
						 M-208.2,513.9H-237V509h28.8L-208.2,513.9L-208.2,513.9z"/>
				</g>
			</g>
			<g id="Group_1540" transform="translate(26.599 2.945)">
				<g id="Group_1539" transform="translate(0 0)">
					<path id="Path_1438" d="M-237.1,508c-0.5,0-0.9,0.4-0.9,0.9s0.4,0.9,0.9,0.9s0.9-0.4,0.9-0.9C-236.2,508.4-236.6,508-237.1,508
						z"/>
				</g>
			</g>
			<g id="Group_1542" transform="translate(23.799 2.945)">
				<g id="Group_1541" transform="translate(0 0)">
					<path id="Path_1439" d="M-237.1,508c-0.5,0-0.9,0.4-0.9,0.9s0.4,0.9,0.9,0.9s0.9-0.4,0.9-0.9C-236.2,508.4-236.6,508-237.1,508
						z"/>
				</g>
			</g>
			<g id="Group_1544" transform="translate(20.999 2.945)">
				<g id="Group_1543" transform="translate(0 0)">
					<path id="Path_1440" d="M-237.1,508c-0.5,0-0.9,0.4-0.9,0.9s0.4,0.9,0.9,0.9s0.9-0.4,0.9-0.9C-236.2,508.4-236.6,508-237.1,508
						z"/>
				</g>
			</g>
			<g id="Group_1546" transform="translate(9.22 10.917)">
				<g id="Group_1545">
					<path id="Path_1441" d="M-233.1,511l-3.3-2.8c-0.4-0.4-1.1-0.3-1.4,0.1c-0.4,0.4-0.3,1.1,0.1,1.4l2.4,2l-2.4,2
						c-0.4,0.4-0.5,1-0.1,1.4c0.4,0.4,1,0.5,1.4,0.1l3.3-2.8c0.5-0.3,0.7-0.8,0.4-1.3C-232.7,511.1-232.9,511-233.1,511z"/>
				</g>
			</g>
			<g id="Group_1548" transform="translate(15.602 16.512)">
				<g id="Group_1547">
					<path id="Path_1442" d="M-233,508h-4c-0.6,0-1,0.4-1,1c0,0.6,0.4,1,1,1h4c0.6,0,1-0.4,1-1C-232,508.4-232.5,508-233,508z"/>
				</g>
			</g>
		</g>
	</g>
	<g id="Cancel_buton" transform="translate(888 -508)">
		<rect id="Rectangle_2214" x="-240" y="508" class="st8" width="152" height="64"/>
		<text transform="matrix(1 0 0 1 -190 549)" class="st1 st4 st3">Back</text>
	</g>
	<path id="Divider_4" class="st9" d="M40,168h720"/>
	<path id="Divider_3" class="st9" d="M40,224h720"/>
	<path id="Divider_2" class="st9" d="M40,280h720"/>
	<path id="Divider_1" class="st9" d="M40,336h720"/>
	<path id="Divider_1-2" class="st9" d="M40,392h720"/>
	<path id="Divider_1-3" class="st9" d="M40,448h720"/>
</g>
</svg>
